<svg height="512pt" viewBox="0 -25 512 512" width="512pt" xmlns="http://www.w3.org/2000/svg"><path d="m170.496094 42.960938c0 20.832031-16.886719 37.722656-37.71875 37.722656-20.835938 0-37.722656-16.890625-37.722656-37.722656 0-20.832032 16.886718-37.722657 37.722656-37.722657 20.832031 0 37.71875 16.890625 37.71875 37.722657zm0 0"/><path d="m126.535156 91.609375c-1.773437 0-3.113281 1.609375-2.792968 3.355469l2.324218 12.589844c.25 1.34375 1.425782 2.320312 2.792969 2.320312h9.46875c1.367187 0 2.542969-.976562 2.789063-2.320312l2.324218-12.589844c.324219-1.746094-1.015625-3.355469-2.789062-3.355469zm0 0"/><path d="m359.796875 89.34375c19.464844 0 35.242187-15.78125 35.242187-35.242188 0-11.121093-5.15625-21.035156-13.203124-27.492187 1.316406-2.367187 2.058593-4.988281 2.058593-7.75 0-10.417969-10.445312-18.859375-23.332031-18.859375s-23.332031 8.445312-23.332031 18.859375c0 2.4375.578125 4.765625 1.617187 6.90625-8.667968 6.417969-14.289062 16.71875-14.289062 28.335937 0 19.464844 15.777344 35.242188 35.238281 35.242188zm0 0"/><path d="m169.589844 289.886719h-4.136719v7.773437h4.136719c2.34375 0 3.765625-.960937 3.765625-3.886718 0-2.925782-1.421875-3.886719-3.765625-3.886719zm0 0"/><path d="m138.574219 305.230469v-.667969c0-2.84375-1.253907-3.847656-3.347657-3.847656h-4.179687v8.359375h4.179687c2.09375 0 3.347657-1.167969 3.347657-3.84375zm0 0"/><path d="m137.820312 292.8125c0-1.464844-.792968-2.925781-2.382812-2.925781h-4.390625v5.808593h4.390625c1.589844 0 2.382812-1.460937 2.382812-2.882812zm0 0"/><path d="m236.808594 292.101562-3.050782 11.203126h6.101563zm0 0"/><path d="m424.3125 229.195312 28.035156-8.871093c8.5-2.691407 13.277344-11.691407 10.738282-20.238281l-18.511719-62.363282c-.003907-.003906-.003907-.011718-.007813-.019531-8.039062-21.8125-28.597656-36.476563-51.84375-36.476563h-8.273437c-1.554688 8.082032-9.078125 42.730469-23.890625 42.730469-14.808594 0-22.335938-34.648437-23.886719-42.730469h-10.082031c-22.414063 0-42.523438 15.007813-48.902344 36.496094l-18.511719 62.359375c-2.539062 8.546875 2.238281 17.550781 10.738281 20.242188l28.035157 8.871093h-92.390625l26.277344-8.316406c9.097656-2.878906 14.210937-12.515625 11.492187-21.664062-4.113281-13.859375-15.089844-50.835938-19.8125-66.746094v-.003906c-8.1875-23.394532-30.269531-39.0625-55.054687-39.0625h-9.300782c-1.394531 7.269531-7.304687 34.597656-18.554687 43.160156l1.953125-9.273438c.0625-.304687.066406-.621093.003906-.929687l-2.292969-11.652344c-.214843-1.09375-1.171875-1.878906-2.285156-1.878906h-8.789063c-1.113281 0-2.070312.785156-2.285156 1.878906l-2.292968 11.652344c-.058594.308594-.058594.625.003906.929687l1.953125 9.273438c-11.25-8.5625-17.160157-35.890625-18.554688-43.15625h-10.792969c-24.167968 0-45.464843 15.890625-52.34375 39.0625l-19.8125 66.746094c-2.714843 9.148437 2.398438 18.789062 11.496094 21.667968l26.277344 8.3125h-48.257812c-8.054688 0-14.585938 6.53125-14.585938 14.585938 0 8.058594 6.53125 14.585938 14.585938 14.585938h1.414062v204.160156h480v-204.160156h1.414062c8.054688 0 14.585938-6.527344 14.585938-14.585938 0-8.054688-6.53125-14.585938-14.585938-14.585938zm-129.21875-35.199218c1.34375-4.53125 12.359375-41.644532 13.941406-46.964844.851563-2.863281 2.382813-5.40625 4.382813-7.472656l-4.671875 48.636718 47.757812 15.109376c1.632813.519531 3.175782 1.1875 4.628906 1.976562 1.449219-.789062 2.996094-1.457031 4.628907-1.976562l46.648437-14.761719-4.816406-50.160157c2.613281 2.242188 4.613281 5.210938 5.632812 8.648438 1.578126 5.3125 12.632813 42.554688 13.945313 46.964844l-58.496094 18.511718c-7.339843 2.320313-11.867187 9.335938-11.367187 16.6875h-9.679688c-.265625-6.15625 1.6875-12.121093 5.324219-16.890624zm68.585938 115.332031c2.34375 0 3.765624-1.339844 3.765624-4.183594v-1.417969h-2.46875c-1.253906 0-1.964843-1.214843-1.964843-2.507812 0-1.214844.710937-2.511719 1.964843-2.511719h7.023438c1.253906 0 1.964844.964844 1.964844 2.050781v4.390626c0 7.191406-4.515625 9.867187-10.285156 9.867187-5.769532 0-10.242188-2.675781-10.242188-9.867187v-11.082032c0-7.1875 4.558594-9.867187 10.035156-9.867187 5.976563 0 10.492188 3.011719 10.492188 8.320312 0 2.507813-1.042969 3.09375-3.261719 3.09375-1.753906 0-3.21875-.457031-3.261719-1.964843-.039062-1.503907-.167968-3.761719-3.71875-3.761719-2.382812 0-3.765625 1.339843-3.765625 4.179687v11.082032c.003907 2.839843 1.382813 4.179687 3.722657 4.179687zm-24.871094-23.164063v26.589844c0 1.339844-1.628906 2.007813-3.261719 2.007813-1.503906 0-2.84375-.292969-3.636719-1.753907l-7.941406-14.46875v14.214844c0 1.339844-1.632812 2.007813-3.265625 2.007813-1.628906 0-3.257813-.667969-3.257813-2.007813v-26.546875c0-1.382812 1.628907-2.007812 3.257813-2.007812 2.34375 0 3.222656.207031 4.8125 3.261719l6.769531 12.917968v-14.214844c0-1.378906 1.632813-1.964843 3.261719-1.964843 1.632813 0 3.261719.585937 3.261719 1.964843zm-42.851563 0c0-1.378906 1.632813-1.964843 3.261719-1.964843 1.632812 0 3.261719.585937 3.261719 1.964843v26.589844c0 1.339844-1.628907 2.007813-3.261719 2.007813-1.628906 0-3.261719-.667969-3.261719-2.007813zm-34.109375 0c0-1.378906 1.628906-1.964843 3.261719-1.964843 1.628906 0 3.261719.585937 3.261719 1.964843v10.035157l7.816406-11.082031c.460938-.667969 1.046875-.917969 1.714844-.917969 1.671875 0 3.847656 1.714843 3.847656 3.34375 0 .335937-.085938.796875-.421875 1.253906l-6.855469 8.613281 8.65625 13.253906c.210938.332032.335938.710938.335938 1.085938 0 1.632812-2.050782 3.261719-3.933594 3.261719-.878906 0-1.714844-.332031-2.257812-1.210938l-7.148438-10.871093-1.753906 2.257812v7.566406c0 1.339844-1.632813 2.007813-3.261719 2.007813-1.632813 0-3.261719-.667969-3.261719-2.007813zm-37.078125 25.460938 7.777344-25.503906c.457031-1.460938 2.339844-2.171875 4.261719-2.171875 1.925781 0 3.804687.710937 4.265625 2.171875l7.820312 25.503906c.039063.167969.082031.335938.082031.460938 0 1.546874-2.382812 2.675781-4.179687 2.675781-1.046875 0-1.882813-.332031-2.132813-1.210938l-1.421874-5.226562h-8.820313l-1.425781 5.226562c-.25.878907-1.085938 1.210938-2.128906 1.210938-1.800782 0-4.183594-1.128907-4.183594-2.675781 0-.125.042968-.292969.085937-.460938zm-13.25-27.425781c1.378907 0 1.964844 1.460937 1.964844 2.800781 0 1.546875-.710937 2.886719-1.964844 2.886719h-11.203125v7.0625h6.269532c1.253906 0 1.964843 1.214843 1.964843 2.550781 0 1.128906-.585937 2.46875-1.964843 2.46875h-6.269532v7.105469h11.203125c1.253907 0 1.964844 1.339843 1.964844 2.886719 0 1.335937-.585937 2.800781-1.964844 2.800781h-14.882812c-1.421875 0-2.84375-.667969-2.84375-2.007813v-26.550781c0-1.335937 1.421875-2.003906 2.84375-2.003906zm-148-91.5c6.605469-22.257813 8.78125-29.585938 14.921875-50.269531 1.207032-4.070313 3.703125-7.53125 6.949219-10v56.703124l43.757813 13.84375c1.789062.566407 3.476562 1.300782 5.054687 2.175782 1.578125-.875 3.269531-1.609375 5.058594-2.175782l42.535156-13.460937v-57.941406c3.839844 2.488281 6.8125 6.289062 8.167969 10.855469 5.769531 19.425781 8.3125 27.992187 14.925781 50.269531l-62.613281 19.8125c-7.40625 2.34375-12.222656 9.191406-12.222656 16.683593h-10.003907c0-6.132812 2.070313-12.035156 5.734375-16.792968zm61.046875 120.097656v-26.589844c0-1.339843 1.421875-2.007812 2.84375-2.007812h8.570313c4.179687 0 8.363281 1.503906 8.363281 7.441406 0 3.386719-1.339844 5.601563-3.554688 6.5625 2.550782.960937 4.304688 2.511719 4.304688 6.691406v.875c0 6.609375-3.679688 8.992188-8.402344 8.992188h-9.28125c-1.757812 0-2.84375-.917969-2.84375-1.964844zm53.367188 92.15625c0 3.164063-3.855469 4.746094-7.707032 4.746094-3.558593 0-6.722656-.691407-8.601562-4.152344l-18.777344-34.195313v33.601563c0 3.164063-3.851562 4.746094-7.707031 4.746094s-7.710937-1.582031-7.710937-4.746094v-62.757813c0-3.257812 3.855468-4.742187 7.710937-4.742187 5.535156 0 7.609375.492187 11.363281 7.707031l16.011719 30.539063v-33.601563c0-3.261718 3.855469-4.644531 7.710937-4.644531 3.851563 0 7.707032 1.382813 7.707032 4.644531zm-1.90625-89.941406c-.835938 0-1.628906-.332031-2.089844-1.210938l-5.726562-11.121093h-2.761719v10.074218c0 1.339844-1.628907 2.007813-3.261719 2.007813-1.628906 0-3.257812-.667969-3.257812-2.007813v-26.589844c0-1.046874.792968-1.964843 2.003906-1.964843h8.65625c5.726562 0 10.285156 2.132812 10.285156 8.945312 0 4.683594-2.132812 7.359375-5.058594 8.488281l5.097656 9.238282c.167969.25.210938.542968.210938.753906.003906 1.632812-2.171875 3.386719-4.097656 3.386719zm42.820312 52.585937c2.964844 0 4.644532 2.867188 4.644532 6.027344 0 2.667969-1.382813 5.832031-4.644532 5.832031h-14.824218v16.800781h26.484374c2.964844 0 4.648438 3.164063 4.648438 6.820313 0 3.160156-1.386719 6.621094-4.648438 6.621094h-35.183593c-3.359375 0-6.71875-1.582031-6.71875-4.746094v-62.757813c0-3.160156 3.359375-4.742187 6.71875-4.742187h35.183593c3.261719 0 4.648438 3.457031 4.648438 6.621094 0 3.65625-1.683594 6.820312-4.648438 6.820312h-26.484374v16.703125zm108.117188-22.730468-19.667969 60.285156c-1.1875 3.460937-5.632813 5.140625-10.179687 5.140625-4.445313 0-9.191407-1.679688-9.980469-5.140625l-5.140625-23.421875-5.140625 23.421875c-.789063 3.460937-5.53125 5.140625-9.980469 5.140625-4.546875 0-9.09375-1.679688-10.179688-5.140625l-19.667968-60.285156c-.097656-.296876-.195313-.792969-.195313-1.285157 0-3.359375 5.53125-6.128906 9.980469-6.128906 2.371094 0 4.347656.792969 4.941406 2.867187l15.019532 50.699219 7.808593-33.40625c.59375-2.667969 4.054688-4.050781 7.414063-4.050781s6.816406 1.382812 7.410156 4.050781l7.808594 33.40625 15.023437-50.699219c.59375-2.078124 2.570313-2.867187 4.941407-2.867187 4.445312 0 9.980468 2.769531 9.980468 6.128906 0 .492188-.097656.988281-.195312 1.285157zm26.1875 65.820312c-12.949219 0-23.816406-6.324219-23.816406-12.847656 0-3.359375 2.964843-8.300782 6.71875-8.300782 4.644531 0 7.609374 7.3125 16.800781 7.3125 4.546875 0 9.585937-1.78125 9.585937-6.523437 0-11.957031-31.328125-9.882813-31.328125-33.011719 0-14.824218 12.945313-20.457031 25.300781-20.457031 5.238282 0 19.667969.988281 19.667969 8.699219 0 2.667968-1.777343 8.101562-6.128906 8.101562-3.558594 0-5.433594-3.753906-13.539063-3.753906-7.015624 0-9.882812 2.863281-9.882812 5.929688 0 9.882812 31.328125 8.003906 31.328125 32.910156 0 14.234375-10.378906 21.941406-24.707031 21.941406zm0 0"/></svg>