<?xml version="1.0" encoding="iso-8859-1"?>
<!-- Generator: Adobe Illustrator 18.1.1, SVG Export Plug-In . SVG Version: 6.00 Build 0)  -->
<svg version="1.1" id="Capa_1" xmlns="http://www.w3.org/2000/svg" xmlns:xlink="http://www.w3.org/1999/xlink" x="0px" y="0px"
	 viewBox="0 0 314.313 314.313" style="enable-background:new 0 0 314.313 314.313;" xml:space="preserve">
<g>
	<g>
		<path style="fill:#010002;" d="M274.372,289.079l-39.889-116.402c0.394-6.587,0.967-19.816-2.47-25.914l-42.072,27.71
			c-17.865,9.559-48.379,29.834-49.788,31.081c-6.784,6.038-8.354,16.003-3.795,23.832l41.44,71.089
			c2.512,4.302,6.444,7.262,10.848,8.61c4.917,1.516,10.418,1.038,15.21-1.748c9.088-5.305,12.166-16.97,6.874-26.057
			l-33.468-57.395c7.089-5.919,15.09-12.316,22.579-17.877c1.868-0.036,3.723-0.245,5.585-0.585l32.907,96.007
			c2.059,5.991,6.808,10.317,12.423,12.041c3.717,1.14,7.823,1.164,11.779-0.185C272.481,309.873,277.785,299.032,274.372,289.079z"
			/>
		<path style="fill:#010002;" d="M182.166,162.498l46.196-28.319c-10.842-14.112-44.322-45.861-53.821-56.435
			c-13.05-14.541-41.428-14.738-55.969-1.683c-4.762,4.278-8.061,9.559-9.929,15.227c-12.256,15.371-33.987,10.812-52.914,7.685
			c-8.807-1.462-16.582,7.852-16.815,15.842c-0.286,9.786,7.071,15.359,15.842,16.809c19.798,3.27,41.183,4.374,58.541-2.989
			c0,0,4.177,51.924,37.436,51.834C150.739,180.464,169.23,169.861,182.166,162.498z"/>
		<path style="fill:#010002;" d="M100.528,70.781c15.544,4.779,32.024-3.938,36.798-19.476c2.989-9.702,0.716-19.774-5.203-27.137
			l5.507,0.806c3.252,0.477,6.271-1.772,6.749-5.03c0.477-3.252-1.766-6.277-5.024-6.749l-11.367-1.665l1.48-1.802
			c2.088-2.542,1.718-6.289-0.823-8.372c-2.542-2.094-6.283-1.718-8.372,0.817l-7.673,9.332c-0.442,0.4-0.835,0.871-1.134,1.39
			l-0.31,0.388c-13.324-0.895-25.998,7.381-30.103,20.699C76.272,49.521,84.99,65.995,100.528,70.781z"/>
	</g>
</g>
<g>
</g>
<g>
</g>
<g>
</g>
<g>
</g>
<g>
</g>
<g>
</g>
<g>
</g>
<g>
</g>
<g>
</g>
<g>
</g>
<g>
</g>
<g>
</g>
<g>
</g>
<g>
</g>
<g>
</g>
</svg>
