<svg height="512pt" viewBox="0 0 512 512" width="512pt" xmlns="http://www.w3.org/2000/svg"><path d="m34.132812 512h443.734376c18.851562 0 34.132812-15.28125 34.132812-34.132812v-443.734376c0-18.851562-15.28125-34.132812-34.132812-34.132812h-443.734376c-18.851562 0-34.132812 15.28125-34.132812 34.132812v443.734376c0 18.851562 15.28125 34.132812 34.132812 34.132812zm443.734376-17.066406h-443.734376c-9.425781 0-17.066406-7.640625-17.066406-17.066406v-392.535157h477.867188v392.535157c0 9.425781-7.640625 17.066406-17.066406 17.066406zm-443.734376-477.867188h443.734376c9.425781 0 17.066406 7.640625 17.066406 17.066406v34.132813h-477.867188v-34.132813c0-9.425781 7.640625-17.066406 17.066406-17.066406zm0 0"/><path d="m42.835938 51.199219c4.714843 0 8.535156-3.820313 8.535156-8.53125 0-4.714844-3.820313-8.535157-8.535156-8.535157h-.082032c-4.714844.023438-8.515625 3.863282-8.492187 8.578126.023437 4.710937 3.863281 8.511718 8.574219 8.488281zm0 0"/><path d="m76.800781 51.199219c4.710938 0 8.53125-3.820313 8.53125-8.53125 0-4.714844-3.820312-8.535157-8.53125-8.535157h-.085937c-4.714844.023438-8.515625 3.863282-8.492188 8.578126.023438 4.710937 3.863282 8.511718 8.578125 8.488281zm0 0"/><path d="m110.976562 51.199219c4.710938 0 8.53125-3.820313 8.53125-8.53125 0-4.714844-3.820312-8.535157-8.53125-8.535157h-.042968c-4.714844.023438-8.515625 3.863282-8.492188 8.578126.023438 4.710937 3.863282 8.511718 8.578125 8.488281zm0 0"/><path d="m469.332031 460.800781h-8.53125v-256c0-14.140625-11.460937-25.601562-25.601562-25.601562h-51.199219c-14.136719 0-25.601562 11.460937-25.601562 25.601562v256h-42.664063v-179.199219c0-14.140624-11.460937-25.601562-25.601563-25.601562h-51.199218c-14.140625 0-25.601563 11.460938-25.601563 25.601562v179.199219h-42.664062v-102.402343c0-14.136719-11.460938-25.597657-25.601563-25.597657h-51.199218c-14.140626 0-25.601563 11.460938-25.601563 25.597657v102.402343h-17.066406v-349.867187c0-4.714844-3.820313-8.535156-8.53125-8.535156-4.714844 0-8.535157 3.820312-8.535157 8.535156v358.398437c0 4.714844 3.820313 8.535157 8.535157 8.535157h426.664062c4.714844 0 8.535157-3.820313 8.535157-8.535157 0-4.710937-3.820313-8.53125-8.535157-8.53125zm-349.867187 0v-59.734375c0-4.710937-3.820313-8.53125-8.53125-8.53125-4.714844 0-8.535156 3.820313-8.535156 8.53125v59.734375h-17.066407v-102.402343c0-4.710938 3.820313-8.53125 8.535157-8.53125h51.199218c4.714844 0 8.535156 3.820312 8.535156 8.53125v102.402343zm145.070312 0v-136.535156c0-4.710937-3.824218-8.53125-8.535156-8.53125s-8.535156 3.820313-8.535156 8.53125v136.535156h-17.066406v-179.199219c0-4.714843 3.820312-8.535156 8.535156-8.535156h51.199218c4.714844 0 8.535157 3.820313 8.535157 8.535156v179.199219zm145.066406 0v-221.867187c0-4.714844-3.820312-8.535156-8.535156-8.535156-4.710937 0-8.53125 3.820312-8.53125 8.535156v221.867187h-17.070312v-256c0-4.714843 3.824218-8.535156 8.535156-8.535156h51.199219c4.714843 0 8.535156 3.820313 8.535156 8.535156v256zm0 0"/><path d="m107.871094 289.570312c2.113281.8125 4.464844.753907 6.53125-.167968 2.070312-.917969 3.691406-2.625 4.5-4.738282l39.015625-101.453124 69.070312 41.4375c3.964844 2.378906 8.726563 3.046874 13.191407 1.847656 4.46875-1.195313 8.257812-4.152344 10.503906-8.195313l33.476562-60.261719 29.160156 23.328126c6.492188 5.195312 15.78125 4.953124 21.996094-.570313l50.765625-45.117187-1.824219 7.320312c-1.148437 4.574219 1.628907 9.207031 6.203126 10.351562.675781.171876 1.375.253907 2.074218.25 3.910156-.003906 7.316406-2.667968 8.265625-6.460937l8.535157-34.132813c.078124-.390624.125-.789062.144531-1.1875 0-.203124.058593-.390624.066406-.597656.035156-.949218-.089844-1.898437-.375-2.808594-.058594-.195312-.152344-.363281-.230469-.5625-.320312-.832031-.769531-1.613281-1.339844-2.304687-.066406-.082031-.082031-.195313-.160156-.289063l-.101562-.066406-.105469-.144531c-.652344-.667969-1.414063-1.21875-2.25-1.632813-.207031-.101562-.410156-.1875-.625-.28125-.867187-.398437-1.800781-.648437-2.753906-.734374h-.042969c-.726562-.039063-1.457031.011718-2.167969.15625l-42.667969 8.53125c-4.476562 1.058593-7.308593 5.46875-6.40625 9.980468.902344 4.507813 5.214844 7.492188 9.753907 6.746094l11.78125-2.355469-47.878907 42.5625-29.160156-23.328125c-3.921875-3.144531-9.035156-4.398437-13.96875-3.425781-4.9375.96875-9.191406 4.070313-11.628906 8.46875l-33.476562 60.261719-69.0625-41.445313c-4.324219-2.589843-9.574219-3.136719-14.339844-1.488281-4.765625 1.644531-8.558594 5.3125-10.363282 10.019531l-39.011718 101.453125c-.816406 2.113282-.753906 4.464844.164062 6.535156.921875 2.070313 2.625 3.6875 4.742188 4.5zm0 0"/></svg>