<?xml version="1.0" encoding="iso-8859-1"?>
<!-- Generator: Adobe Illustrator 19.0.0, SVG Export Plug-In . SVG Version: 6.00 Build 0)  -->
<svg version="1.1" id="Capa_1" xmlns="http://www.w3.org/2000/svg" xmlns:xlink="http://www.w3.org/1999/xlink" x="0px" y="0px"
	 viewBox="0 0 480.257 480.257" style="enable-background:new 0 0 480.257 480.257;" xml:space="preserve">
<g>
	<g>
		<g>
			<path d="M432,280.001l32,32l11.312-11.312L432,257.377v-25.376l32,32l11.312-11.312L432,209.377v-25.376l32,32l11.312-11.312
				L432,161.377v-25.376l32,32l11.312-11.312l-45.656-45.656c-3.124-3.123-8.188-3.123-11.312,0l-45.656,45.656L384,168.001l32-32
				v25.376l-43.312,43.312L384,216.001l32-32v25.376l-43.312,43.312L384,264.001l32-32v25.376l-43.312,43.312L384,312.001l32-32
				v180.688h-19.52L246.824,216.513c-0.164-0.226-0.343-0.439-0.536-0.64c-0.179-0.24-0.371-0.47-0.576-0.688
				c-0.299-0.294-0.623-0.561-0.968-0.8c-0.34-0.316-0.707-0.602-1.096-0.856c-2.914-1.478-6.436-1.01-8.864,1.176
				c-0.631,0.493-1.173,1.091-1.6,1.768L83.52,460.689H64V344.001l32,32l11.312-11.312L64,321.377v-25.376l32,32l11.312-11.312
				L64,273.377v-25.376l32,32l11.312-11.312l-45.656-45.656c-3.124-3.123-8.188-3.123-11.312,0L4.688,268.689L16,280.001l32-32
				v25.376L4.688,316.689L16,328.001l32-32v25.376L4.688,364.689L16,376.001l32-32v116.688H0v16h480v-16h-48V280.001z
				 M102.288,460.689L192.2,313.985l-61.52,146.704H102.288z M213.48,460.689L248,397.393l11.504,21.096l23.016,42.2H213.48z
				 M268.232,401.081l41.192,22.88l-13.728,27.456L268.232,401.081z M308.944,460.689l18.256-36.424
				c1.912-3.833,0.466-8.491-3.28-10.568l-72-40c-3.11-1.726-6.985-1.191-9.512,1.312c-0.172,0.213-0.332,0.434-0.48,0.664
				c-0.346,0.361-0.651,0.758-0.912,1.184l-45.768,83.832H148l93.336-222.504l136.376,222.504H308.944z"/>
			<path d="M380,92.689h72c15.464,0.141,28.115-12.28,28.256-27.744c0.141-15.464-12.28-28.115-27.744-28.256
				c-8.74-20.207-32.207-29.503-52.414-20.762c-9.31,4.027-16.735,11.452-20.762,20.762c-15.464,0.183-27.851,12.868-27.668,28.332
				C351.851,80.485,364.536,92.872,380,92.689z M380,52.689h5.056c3.623-0.001,6.793-2.436,7.728-5.936
				c0.048-0.208,0.104-0.456,0.152-0.704c3.64-12.581,16.674-19.941,29.328-16.56c8.301,2.269,14.727,8.848,16.8,17.2
				c0.915,3.543,4.117,6.014,7.776,6H452c6.627,0,12,5.373,12,12s-5.373,12-12,12h-72c-6.627,0-12-5.373-12-12
				S373.373,52.689,380,52.689z"/>
			<path d="M61.192,155.729c1.171,0.63,2.479,0.959,3.808,0.96h87.496c16.034-0.023,30.465-9.732,36.528-24.576
				c31.509,16.384,70.334,4.122,86.718-27.387c0.681-1.31,1.317-2.643,1.906-3.997c1.825-4.024,0.042-8.765-3.982-10.59
				c-1.029-0.467-2.145-0.71-3.274-0.714c-24.173-0.605-44.698-17.884-49.416-41.6c-2.373-11.083-1.122-22.634,3.568-32.952
				c1.825-4.024,0.042-8.765-3.982-10.59c-1.024-0.464-2.134-0.708-3.258-0.714c-22.45-0.101-43.333,11.493-55.12,30.6
				c-8.119,12.981-11.649,28.311-10.024,43.536h-17.912C128.491,48.211,102.021,27.368,72,28.689
				C36.654,28.818,8.105,57.576,8.234,92.922C8.346,123.92,30.658,150.381,61.192,155.729z M175.728,42.649
				c6.715-10.904,17.461-18.717,29.904-21.744c-8.745,37.122,14.259,74.305,51.382,83.051c0.065,0.015,0.13,0.03,0.194,0.045
				c-7.012,9.407-17.215,15.932-28.696,18.352h-0.016c-12.679,2.655-25.894,0.126-36.696-7.024
				c-0.692-14.723-9.54-27.83-22.936-33.976C166.077,68.049,168.536,54.183,175.728,42.649z M24.771,86.331
				C27.939,62.621,48.08,44.863,72,44.689c24.646-1.288,45.793,17.377,47.576,41.992c0.5,4.003,3.902,7.007,7.936,7.008h24.984
				c12.979-0.24,23.694,10.088,23.934,23.066s-10.088,23.694-23.066,23.934c-0.289,0.005-0.578,0.005-0.868,0H67.744
				c-0.567-0.203-1.155-0.345-1.752-0.424C39.716,136.754,21.261,112.608,24.771,86.331z"/>
			<rect x="272" y="132.689" width="16" height="16"/>
			<rect x="216" y="164.689" width="16" height="16"/>
			<rect x="128" y="164.689" width="16" height="16"/>
			<rect x="352" y="124.689" width="16" height="16"/>
			<rect x="312" y="156.689" width="16" height="16"/>
		</g>
	</g>
</g>
<g>
</g>
<g>
</g>
<g>
</g>
<g>
</g>
<g>
</g>
<g>
</g>
<g>
</g>
<g>
</g>
<g>
</g>
<g>
</g>
<g>
</g>
<g>
</g>
<g>
</g>
<g>
</g>
<g>
</g>
</svg>
