<?xml version="1.0" encoding="iso-8859-1"?>
<!-- Generator: Adobe Illustrator 19.0.0, SVG Export Plug-In . SVG Version: 6.00 Build 0)  -->
<svg version="1.1" id="Layer_1" xmlns="http://www.w3.org/2000/svg" xmlns:xlink="http://www.w3.org/1999/xlink" x="0px" y="0px"
	 viewBox="0 0 320.67 320.67" style="enable-background:new 0 0 320.67 320.67;" xml:space="preserve">
<g>
	<g>
		<path d="M315.521,280.108L195.742,160.334L315.515,40.553c6.865-6.865,6.865-18.035,0-24.901L305.012,5.154
			c-3.314-3.314-7.738-5.14-12.454-5.14c-4.716,0-9.14,1.825-12.456,5.14L160.332,124.923L40.556,5.152
			c-3.314-3.316-7.736-5.141-12.452-5.141s-9.139,1.826-12.453,5.141L5.15,15.65c-6.863,6.866-6.863,18.036,0.001,24.899
			l119.774,119.785L5.147,280.108c-6.863,6.866-6.863,18.04,0.001,24.91l10.5,10.498c3.315,3.316,7.738,5.143,12.454,5.143
			s9.138-1.827,12.451-5.143l119.78-119.774l119.774,119.771c3.316,3.316,7.74,5.143,12.456,5.143s9.14-1.826,12.454-5.142
			l10.504-10.499C322.387,298.146,322.386,286.973,315.521,280.108z M311.863,301.359l-10.504,10.499
			c-2.338,2.339-5.462,3.627-8.796,3.627c-3.334,0-6.46-1.288-8.799-3.627L162.16,190.258c-1.01-1.01-2.647-1.01-3.656,0
			L36.895,311.861c-2.337,2.339-5.459,3.627-8.793,3.627c-3.334,0-6.458-1.288-8.796-3.628l-10.5-10.497
			c-4.849-4.853-4.849-12.747-0.001-17.597L130.41,162.163c1.01-1.009,1.01-2.647,0-3.656L8.807,36.893
			c-4.847-4.847-4.847-12.737,0-17.586L19.309,8.809c2.338-2.338,5.462-3.626,8.796-3.626c3.334,0,6.458,1.288,8.794,3.626
			l121.605,121.599c1.01,1.01,2.647,1.01,3.656,0L283.758,8.811c2.339-2.338,5.464-3.626,8.799-3.626
			c3.334,0,6.459,1.288,8.797,3.626l10.504,10.498c4.849,4.848,4.849,12.738,0,17.586L190.256,158.506
			c-1.01,1.009-1.01,2.647,0,3.656l121.606,121.603C316.712,288.615,316.712,296.508,311.863,301.359z"/>
	</g>
</g>
<g>
	<g>
		<path d="M269.5,37.063c-1.01-1.01-2.647-1.01-3.656,0L160.333,142.574L54.822,37.064c-1.008-1.01-2.646-1.01-3.656,0
			c-1.01,1.01-1.01,2.647,0,3.657L158.505,148.06c0.504,0.504,1.167,0.757,1.828,0.757c0.661,0,1.324-0.253,1.828-0.758L269.5,40.72
			C270.51,39.71,270.51,38.073,269.5,37.063z"/>
	</g>
</g>
<g>
	<g>
		<path d="M303.804,286.042L178.072,160.316L303.757,34.63c3.549-3.553,3.552-9.335,0.004-12.891l-4.849-4.847
			c-1.716-1.719-4.005-2.665-6.448-2.665c-2.442,0-4.732,0.946-6.445,2.663l-5.922,5.916c-1.01,1.01-1.011,2.647-0.002,3.657
			c1.01,1.01,2.647,1.01,3.657,0.001l5.924-5.919c0.739-0.74,1.728-1.147,2.787-1.147c1.059,0,2.048,0.408,2.789,1.149l4.849,4.847
			c1.535,1.538,1.533,4.042-0.003,5.579L172.587,158.488c-0.485,0.485-0.758,1.143-0.758,1.828s0.273,1.343,0.758,1.828
			l127.558,127.553c1.537,1.54,1.537,4.045,0.004,5.58l-4.854,4.846c-1.537,1.533-4.036,1.533-5.571,0.002L162.161,172.568
			c-1.01-1.01-2.647-1.01-3.656,0L30.949,300.122c-1.539,1.534-4.042,1.535-5.58,0.003l-4.848-4.85
			c-0.74-0.74-1.147-1.73-1.147-2.787c0-1.057,0.408-2.049,1.149-2.79l127.555-127.555c1.01-1.009,1.01-2.647,0-3.656L20.567,30.976
			c-1.536-1.539-1.537-4.043-0.002-5.579l4.849-4.849c0.74-0.74,1.73-1.148,2.788-1.148c1.056,0,2.047,0.408,2.788,1.151
			l5.927,5.916c1.011,1.008,2.648,1.007,3.657-0.003c1.008-1.01,1.007-2.648-0.003-3.657l-5.924-5.914
			c-1.717-1.718-4.005-2.665-6.445-2.665s-4.729,0.946-6.445,2.663l-4.85,4.85c-3.548,3.552-3.548,9.333,0.001,12.89
			l125.684,125.685L16.866,286.042c-1.718,1.718-2.664,4.008-2.664,6.447c0,2.44,0.946,4.729,2.663,6.445l4.849,4.852
			c3.553,3.541,9.334,3.541,12.889-0.003l125.73-125.728l125.737,125.73c1.775,1.772,4.108,2.658,6.439,2.658
			s4.664-0.886,6.439-2.658l4.858-4.85C307.352,295.38,307.352,289.599,303.804,286.042z"/>
	</g>
</g>
<g>
</g>
<g>
</g>
<g>
</g>
<g>
</g>
<g>
</g>
<g>
</g>
<g>
</g>
<g>
</g>
<g>
</g>
<g>
</g>
<g>
</g>
<g>
</g>
<g>
</g>
<g>
</g>
<g>
</g>
</svg>
