<svg height="512pt" viewBox="-10 0 512 512" width="512pt" xmlns="http://www.w3.org/2000/svg"><path d="m120 453h-40c-5.523438 0-10 4.476562-10 10s4.476562 10 10 10h40c5.523438 0 10-4.476562 10-10s-4.476562-10-10-10zm0 0"/><path d="m160.007812 473c5.523438 0 10-4.476562 10-10s-4.476562-10-10-10h-.007812c-5.523438 0-9.996094 4.476562-9.996094 10s4.480469 10 10.003906 10zm0 0"/><path d="m488.679688 389.191406c-.007813-.3125-.035157-.632812-.074219-.945312-4.566407-36.554688-30.519531-66.304688-66.113281-75.796875-.113282-.03125-.226563-.058594-.339844-.085938l-74.335938-17.058593-8.039062-15.957032c-.480469-.949218-1.105469-1.820312-1.859375-2.570312-5.871094-5.871094-13.671875-9.105469-21.964844-9.105469-5.292969 0-10.394531 1.355469-14.953125 3.90625v-30.417969c.5-.386718 1.007812-.761718 1.5-1.160156h83.5c5.519531 0 10-4.476562 10-10v-110c0-66.167969-53.832031-120-120-120h-60c-66.167969 0-120 53.832031-120 120v110c0 5.523438 4.476562 10 10 10h83.5c.492188.398438 1 .773438 1.5 1.160156v30.414063c-4.558594-2.546875-9.660156-3.902344-14.957031-3.902344-8.292969 0-16.09375 3.234375-21.960938 9.105469-.753906.75-1.382812 1.621094-1.859375 2.570312l-8.074218 16.027344-73.101563 17.761719c-17.765625 4.371093-33.582031 13.910156-45.742187 27.582031-12.15625 13.671875-19.785157 30.492188-22.054688 48.644531-.039062.320313-.0625.636719-.070312.957031l-3.17578175 111.394532c-.07812505 2.699218.94140575 5.316406 2.82421875 7.253906s4.46875 3.03125 7.171875 3.03125h472c2.703125 0 5.289062-1.09375 7.175781-3.035156 1.882813-1.9375 2.898438-4.558594 2.820313-7.257813zm-194.703126-367.570312c46.589844 8.492187 82.023438 49.375 82.023438 98.378906v100h-55.203125c9.597656-14.308594 15.203125-31.511719 15.203125-50v-50.230469c0-4.8125-3.425781-8.941406-8.152344-9.828125-18.238281-3.425781-49.054687-24.121094-67.585937-40.332031 12.558593-13.703125 23.867187-29.785156 33.714843-47.988281zm-177.976562 198.378906v-100c0-55.140625 44.859375-100 100-100h55.929688c-9.722657 16.535156-20.769532 30.921875-32.933594 42.863281-.011719.007813-.019532.019531-.027344.03125-.015625.011719-.027344.019531-.039062.035157-17.015626 17.015624-52.46875 42.820312-74.777344 47.011718-4.726563.886719-8.152344 5.019532-8.152344 9.828125v50.230469c0 18.488281 5.605469 35.691406 15.203125 50zm60-50v-42.484375c23.4375-7.410156 51.9375-27.542969 70.015625-43.78125 18.289063 16.289063 47.363281 36.386719 69.984375 43.734375v42.53125c0 38.597656-31.402344 70-70 70s-70-31.402344-70-70zm105 82.894531v30.039063c-10.984375 4.644531-22.820312 7.066406-35 7.066406s-24.019531-2.421875-35-7.066406v-30.039063c10.765625 4.566407 22.589844 7.105469 35 7.105469s24.234375-2.539062 35-7.105469zm-161 140.105469c5.511719 0 10 4.484375 10 10s-4.488281 10-10 10c-5.515625 0-10-4.484375-10-10s4.484375-10 10-10zm116 99h-215.710938l2.867188-100.613281c3.738281-28.375 24.851562-51.984375 52.640625-58.824219l34.203125-8.308594v50.464844c-11.640625 4.128906-20 15.246094-20 28.28125 0 16.542969 13.457031 30 30 30s30-13.457031 30-30c0-13.035156-8.363281-24.152344-20-28.28125v-55.324219l17.578125-4.273437 88.421875 97.730468zm-72.984375-189.625 6.226563-12.359375c1.9375-1.519531 4.308593-2.34375 6.800781-2.34375 2.25 0 4.394531.6875 6.214843 1.980469 18.6875 13.3125 40.726563 20.347656 63.742188 20.347656 23.011719 0 45.054688-7.035156 63.742188-20.347656 1.816406-1.296875 3.964843-1.980469 6.210937-1.980469 2.496094 0 4.863281.824219 6.804687 2.34375l6.226563 12.359375-82.984375 91.71875zm92.984375 189.625v-79.148438l88.480469-97.792968 17.519531 4.019531v54.929687c-22.796875 4.644532-40 24.847657-40 48.992188v39c0 5.523438 4.476562 10 10 10h20c5.519531 0 10-4.476562 10-10 0-5.519531-4.480469-10-10-10h-10v-29c0-16.539062 13.457031-30 30-30s30 13.460938 30 30v29h-10c-5.523438 0-10 4.480469-10 10 0 5.523438 4.476562 10 10 10h20c5.519531 0 10-4.476562 10-10v-39c0-24.144531-17.207031-44.347656-40-48.992188v-50.335937l35.503906 8.144531c27.449219 7.390625 47.496094 30.289063 51.199219 58.457032l2.996094 101.726562zm0 0"/></svg>