<svg height="480pt" viewBox="-32 0 480 480.70185" width="480pt" xmlns="http://www.w3.org/2000/svg"><path d="m169.71875 132.75c6.375 3.605469 13.625 5.375 20.945312 5.113281 5.042969-.03125 10.070313-.617187 14.984376-1.753906 9.582031-1.929687 18.519531-6.257813 25.972656-12.582031 1.953125-1.761719 3.660156-3.777344 5.074218-5.992188 2.691407-3.988281 3.65625-8.894531 2.671876-13.601562-1.15625-4.738282-4.179688-8.804688-8.382813-11.273438-11.125-5.609375-23.957031-6.808594-35.929687-3.359375-12.324219 2.066407-23.414063 8.707031-31.046876 18.601563-2.695312 3.984375-3.65625 8.890625-2.671874 13.597656 1.160156 4.730469 4.183593 8.785156 8.382812 11.25zm7.847656-16.390625c5.480469-6.136719 12.914063-10.1875 21.039063-11.464844 3.710937-.859375 7.503906-1.300781 11.3125-1.320312 4.328125-.230469 8.636719.671875 12.511719 2.609375 1.007812.628906 1.296874 1.117187 1.335937 1.300781-.066406.570313-.285156 1.105469-.628906 1.5625-5.476563 6.132813-12.910157 10.179687-21.035157 11.453125-7.851562 2.328125-16.265624 1.871094-23.824218-1.285156-1.007813-.632813-1.292969-1.121094-1.335938-1.304688.066406-.5625.285156-1.097656.625-1.550781zm0 0"/><path d="m118.984375 132.75c4.238281-2.378906 7.273437-6.4375 8.363281-11.175781 1.085938-4.738281.125-9.714844-2.652344-13.703125-7.636718-9.882813-18.722656-16.515625-31.039062-18.570313-11.972656-3.46875-24.8125-2.269531-35.9375 3.351563-4.234375 2.382812-7.269531 6.441406-8.355469 11.179687-1.085937 4.734375-.128906 9.710938 2.644531 13.703125 7.632813 9.882813 18.722657 16.511719 31.039063 18.566406 4.917969 1.144532 9.945313 1.734376 14.992187 1.761719 7.320313.261719 14.570313-1.507812 20.945313-5.113281zm-32.386719-12.25c-8.121094-1.273438-15.554687-5.320312-21.03125-11.453125-.378906-.46875-.589844-1.046875-.609375-1.648437 0-.097657.304688-.585938 1.3125-1.214844 3.875-1.9375 8.1875-2.839844 12.511719-2.609375 3.8125.019531 7.609375.464843 11.320312 1.328125 8.125 1.273437 15.558594 5.320312 21.035157 11.457031.351562.464844.570312 1.015625.628906 1.597656v.089844c0 .09375-.300781.582031-1.3125 1.214844-7.566406 3.160156-16 3.601562-23.855469 1.238281zm0 0"/><path d="m199.144531 194.667969c.753907-2.800781-.070312-5.789063-2.148437-7.8125-2.078125-2.023438-5.09375-2.761719-7.871094-1.929688-2.78125.832031-4.890625 3.101563-5.519531 5.9375-3.679688 14.972657-20.183594 25.839844-39.253907 25.839844-18.671874 0-35.113281-10.601563-39.089843-25.203125-.683594-2.828125-2.851563-5.066406-5.660157-5.835938-2.808593-.769531-5.816406.046876-7.847656 2.136719-2.03125 2.085938-2.769531 5.113281-1.921875 7.902344 5.925781 21.796875 28.351563 37 54.519531 37 26.335938 0 49.382813-16 54.792969-38.035156zm0 0"/><path d="m398.75 175.398438c-15.863281-12.425782-38.734375-6.847657-65.230469-.34375-22.226562 6.378906-45.246093 9.542968-68.367187 9.398437 14.476562-38.308594 22.324218-78.804687 23.199218-119.75 0-29.679687-5.601562-47.890625-17.601562-57.304687-15.855469-12.425782-38.742188-6.839844-65.230469-.34375-19.925781 5.667968-40.464843 8.90625-61.167969 9.648437-20.710937-.738281-41.257812-3.980469-61.191406-9.648437-26.503906-6.496094-49.378906-12.082032-65.234375.34375-11.976562 9.414062-17.574219 27.625-17.574219 57.304687 0 95.472656 59.199219 241.496094 138.773438 247.703125 20.675781 82.167969 70.363281 168.296875 133.226562 168.296875 82.167969 0 144-150.449219 144-248 0-29.679687-5.601562-47.890625-17.601562-57.304687zm-343.453125 42.101562c-24.207031-47.394531-37.511719-99.597656-38.945313-152.796875 0-23.707031 3.847657-38.753906 11.464844-44.714844 4.285156-2.929687 9.433594-4.339843 14.613282-4 12.507812.863281 24.886718 3.070313 36.921874 6.585938 21.171876 6.019531 43 9.417969 65 10.128906 21.996094-.703125 43.828126-4.101563 65-10.113281 22.4375-5.488282 41.824219-10.246094 51.535157-2.601563 7.617187 5.960938 11.464843 21.007813 11.464843 44.714844-.976562 42.53125-9.734374 84.523437-25.832031 123.902344-9.6875 25.269531-23.050781 48.964843-39.664062 70.328125-6.164063 7.707031-13.105469 14.761718-20.710938 21.046875-11.378906 9.957031-25.742187 15.839843-40.832031 16.722656h-.960938c-30.703124 0-63.199218-28.867187-89.054687-79.203125zm150.78125 66.027344c1.066406-1.042969 2.113281-2.089844 3.199219-3.203125.902344-.941407 1.808594-1.90625 2.714844-2.894531 1.066406-1.152344 2.132812-2.332032 3.199218-3.542969.398438-.464844.800782-.898438 1.214844-1.359375.570312.101562 1.160156.222656 1.746094.367187 8.121094 1.273438 15.554687 5.320313 21.03125 11.457031.351562.464844.570312 1.015626.632812 1.597657v.089843c0 .09375-.304687.582032-1.3125 1.214844-7.546875 3.164063-15.949218 3.621094-23.792968 1.296875-3.484376-.800781-6.886719-1.9375-10.152344-3.394531.464844-.542969.984375-1.109375 1.519531-1.636719zm155.328125 101.972656c-25.855469 50.335938-58.351562 79.203125-89.054688 79.203125-51.199218 0-96.679687-75.503906-116.878906-152.914063.292969-.046874.589844-.167968.894532-.214843 3.066406-.539063 6.097656-1.273438 9.070312-2.199219.402344-.121094.800781-.289062 1.195312-.417969 2.835938-.945312 5.617188-2.050781 8.335938-3.304687.527344-.238282 1.046875-.453125 1.597656-.710938 3.019532-1.46875 5.957032-3.097656 8.800782-4.878906.632812-.394531 1.265624-.800781 1.886718-1.214844 1.335938-.875 2.671875-1.753906 4-2.707031 6.128906 3.71875 12.820313 6.40625 19.816406 7.960937 4.917969 1.144532 9.945313 1.734376 14.992188 1.761719 7.320312.261719 14.570312-1.507812 20.945312-5.113281 4.234376-2.382812 7.269532-6.441406 8.355469-11.175781 1.085938-4.738281.128907-9.710938-2.644531-13.703125-6.3125-8.480469-15.351562-14.53125-25.601562-17.128906 1.160156-1.601563 2.320312-3.199219 3.464843-4.929688.761719-1.117188 1.503907-2.300781 2.257813-3.453125 1.054687-1.601563 2.109375-3.203125 3.144531-4.890625.796875-1.285156 1.597656-2.632812 2.398437-3.957031.960938-1.601563 1.914063-3.203125 2.855469-4.84375.800781-1.421875 1.601563-2.878907 2.402344-4.335938.886719-1.597656 1.773437-3.238281 2.644531-4.894531.800782-1.535156 1.601563-3.105469 2.402344-4.671875s1.648438-3.273437 2.457031-4.945313c.804688-1.671874 1.597657-3.292968 2.359375-4.964843.757813-1.671875 1.542969-3.328125 2.296875-5.027344.75-1.695313 1.535157-3.46875 2.285157-5.230469.351562-.800781.722656-1.601562 1.074218-2.449218 26.4375 1.125 52.878906-2.117188 78.261719-9.597657 22.441406-5.496093 41.824219-10.25 51.535156-2.601562 7.546875 6 11.394531 21.046875 11.394531 44.753906-1.433593 53.199219-14.738281 105.402344-38.945312 152.796875zm0 0"/><path d="m367.359375 271.855469c-3.03125-13.34375-22.089844-19.625-44.3125-14.5625-8.851563 1.851562-17.171875 5.679687-24.335937 11.199219-6.972657 4.585937-10.632813 12.816406-9.367188 21.066406 2.320312 10.230468 14.0625 16.304687 29.429688 16.304687 5.011718-.03125 10-.613281 14.882812-1.746093 8.851562-1.851563 17.171875-5.679688 24.335938-11.199219 6.953124-4.578125 10.613281-12.78125 9.375-21.015625zm-19.511719 8.6875c-5.246094 3.945312-11.300781 6.675781-17.730468 8-15.085938 3.4375-24.734376-.554688-25.175782-2.488281-.09375-.425782.679688-2.503907 3.90625-5.152344 5.25-3.945313 11.304688-6.675782 17.734375-8 3.734375-.871094 7.558594-1.328125 11.394531-1.351563 8.398438 0 13.453126 2.445313 13.78125 3.839844.097657.421875-.679687 2.503906-3.910156 5.152344zm0 0"/><path d="m272.566406 352.765625c-26.335937 0-49.382812 16-54.785156 38.03125-1.050781 4.289063 1.570312 8.617187 5.859375 9.671875.625.15625 1.265625.234375 1.910156.234375 3.679688-.007813 6.882813-2.523437 7.761719-6.097656 3.679688-14.976563 20.191406-25.839844 39.253906-25.839844 18.671875 0 35.113282 10.601563 39.089844 25.199219 1.160156 4.265625 5.554688 6.78125 9.820312 5.621094 4.261719-1.160157 6.777344-5.554688 5.617188-9.820313-5.941406-21.792969-28.34375-37-54.527344-37zm0 0"/></svg>