<svg height="512pt" viewBox="-140 0 512 512.001" width="512pt" xmlns="http://www.w3.org/2000/svg"><path d="m230.777344 416.429688c-4.308594-31.53125-17.808594-48.480469-27.664063-60.851563-10.839843-13.609375-15.785156-19.820313-8.707031-37.808594 11.734375-29.835937 10.914062-56.304687-2.253906-72.621093-6.992188-8.664063-20.453125-17.917969-45.792969-16.46875v-131.902344l1.101563-1.230469c.035156-.039063.070312-.078125.105468-.121094l6.898438-7.722656c4.574218-5.121094 7.097656-11.726563 7.097656-18.597656v-36.488281c-.003906-17.984376-14.636719-32.617188-32.621094-32.617188h-26.246094c-17.988281 0-32.621093 14.632812-32.621093 32.617188v36.488281c0 6.867187 2.523437 13.472656 7.097656 18.597656l6.871094 7.695313c.042969.050781.085937.101562.132812.148437l1.101563 1.230469v131.902344c-25.335938-1.449219-38.800782 7.808593-45.792969 16.472656-13.167969 16.3125-13.988281 42.78125-2.25 72.621094 7.074219 17.984374 2.128906 24.195312-8.710937 37.804687-9.855469 12.375-23.355469 29.320313-27.664063 60.851563-3.375 24.753906 3.261719 47.945312 18.691406 65.308593 17.148438 19.300781 43.886719 30.265625 73.625 30.261719.6875 0 1.378907-.003906 2.070313-.015625h41.148437c.691407.011719 1.378907.015625 2.070313.015625 29.734375 0 56.476562-10.964844 73.625-30.261719 15.425781-17.363281 22.0625-40.554687 18.6875-65.308593zm-125.5-308.761719v-8.789063h21.082031v23.570313h-21.082031zm21.082031 74.949219v20.164062h-21.082031v-20.164062zm-21.085937-20v-20.167969h21.085937v20.167969zm21.085937 60.164062v16.894531.167969 3.105469h-21.082031v-3.105469c0-.070312 0-.140625 0-.207031v-16.851563h21.082031zm-21.085937 40.167969h21.085937v13.613281c-3.480469-.671875-7.011719-1.007812-10.542969-1.007812s-7.0625.335937-10.542968 1.007812zm-15.199219-230.332031c0-6.957032 5.660156-12.617188 12.621093-12.617188h26.246094c6.957032 0 12.617188 5.660156 12.617188 12.617188v36.488281c0 1.949219-.714844 3.820312-2.011719 5.273437l-4.019531 4.5h-39.421875l-4.015625-4.5c-1.300782-1.453125-2.015625-3.324218-2.015625-5.273437zm107.0625 435.835937c-13.679688 15.394531-35.699219 23.972656-60.480469 23.53125-.058594-.003906-.117188-.003906-.179688-.003906h-41.320312c-.058594 0-.117188 0-.175781.003906-24.75.433594-46.800781-8.136719-60.480469-23.53125-11.65625-13.117187-16.4375-30.171875-13.824219-49.320313 3.5625-26.078124 14.148438-39.371093 23.488281-51.09375 11.300782-14.1875 22.984376-28.855468 11.679688-57.589843-8.761719-22.28125-9.070312-42.488281-.796875-52.738281 6.714844-8.320313 18.984375-9.800782 30.230469-8.992188v41.742188c0 3.46875 1.796875 6.6875 4.75 8.511718 1.605468.988282 3.421875 1.488282 5.25 1.488282 1.535156 0 3.074218-.355469 4.488281-1.066407l.195313-.097656c9.988281-5.027344 21.898437-5 31.863281.074219 3.097656 1.578125 6.796875 1.433594 9.761719-.386719 2.96875-1.816406 4.773437-5.046875 4.773437-8.523437v-41.738282c11.246094-.808594 23.515625.667969 30.230469 8.988282 8.269531 10.25 7.964844 30.457031-.796875 52.738281-11.308594 28.734375.378906 43.402343 11.675781 57.589843 9.34375 11.726563 19.929688 25.015626 23.492188 51.09375 2.613281 19.148438-2.167969 36.203126-13.824219 49.320313zm0 0"/><path d="m115.816406 312.550781c-20.925781 0-37.949218 17.027344-37.949218 37.953125 0 20.925782 17.023437 37.949219 37.949218 37.949219 20.925782 0 37.953125-17.023437 37.953125-37.949219 0-20.925781-17.027343-37.953125-37.953125-37.953125zm0 55.902344c-9.894531 0-17.949218-8.050781-17.949218-17.949219 0-9.898437 8.054687-17.953125 17.949218-17.953125 9.898438 0 17.953125 8.054688 17.953125 17.953125 0 9.898438-8.054687 17.949219-17.953125 17.949219zm0 0"/><path d="m130.257812 417.234375h-52.878906c-5.523437 0-10 4.476563-10 10s4.476563 10 10 10h52.878906c5.523438 0 10-4.476563 10-10s-4.476562-10-10-10zm0 0"/><path d="m170.285156 437.234375h-.027344c-5.519531 0-10-4.476563-10-10s4.480469-10 10-10c5.523438 0 10.011719 4.476563 10.011719 10s-4.464843 10-9.984375 10zm0 0"/></svg>