<?xml version="1.0" encoding="iso-8859-1"?>
<!-- Generator: Adobe Illustrator 18.1.1, SVG Export Plug-In . SVG Version: 6.00 Build 0)  -->
<svg version="1.1" id="Capa_1" xmlns="http://www.w3.org/2000/svg" xmlns:xlink="http://www.w3.org/1999/xlink" x="0px" y="0px"
	 viewBox="0 0 60.626 60.626" style="enable-background:new 0 0 60.626 60.626;" xml:space="preserve">
<g>
	<g>
		<path style="fill:#010002;" d="M59.601,20.867L33.927,43.31c-1.605,1.404-3.213,2.068-4.778,1.971
			c-2.286-0.145-3.798-1.882-3.812-1.898L1.066,20.46L0,21.324l24.196,22.847c0.248,0.28,2.037,2.192,4.833,2.375
			c0.143,0.01,0.285,0.016,0.429,0.016c1.863,0,3.71-0.791,5.496-2.352l25.672-22.444L59.601,20.867z"/>
		<circle style="fill:#010002;" cx="41.755" cy="18.658" r="4.594"/>
		<path style="fill:#010002;" d="M27.054,40.402c0.007,0.008,0.014,0.018,0.022,0.023c0.109,0.108,0.223,0.209,0.34,0.301
			c0.24,0.215,0.48,0.43,0.72,0.646c1.487,1.33,3.379,0.664,4.26-0.591c0.17-0.118,0.334-0.243,0.488-0.386
			c2.815-2.574,5.631-5.15,8.443-7.727c0.16-0.086,0.318-0.188,0.471-0.324c3.469-3.104,6.938-6.207,10.404-9.311
			c2.111-1.887-0.998-4.974-3.098-3.097c-2.492,2.229-4.982,4.458-7.474,6.687c-0.013-0.011-0.022-0.025-0.034-0.037
			c-1.652-1.63-4.158-1.48-5.81,0.031c-2.629,2.403-5.255,4.807-7.881,7.208c-4.991-4.468-9.982-8.936-14.972-13.403
			c-2.62-2.348-6.507,1.511-3.87,3.872C15.061,29.665,21.057,35.033,27.054,40.402z"/>
	</g>
</g>
<g>
</g>
<g>
</g>
<g>
</g>
<g>
</g>
<g>
</g>
<g>
</g>
<g>
</g>
<g>
</g>
<g>
</g>
<g>
</g>
<g>
</g>
<g>
</g>
<g>
</g>
<g>
</g>
<g>
</g>
</svg>
