<svg height="682pt" viewBox="-21 -21 682 682.66792" width="682pt" xmlns="http://www.w3.org/2000/svg"><path d="m629.570312 618.671875h-40.527343l29.050781-156.875c0-.070313.0625-.125.082031-.199219l6.816407-37.007812 15.039062-81.207032c.914062-5.71875-2.898438-11.121093-8.589844-12.171874-5.695312-1.054688-11.183594 2.621093-12.375 8.289062l-9.375 50.605469c-.371094.40625-.6875.863281-.941406 1.351562-.023438.160157-.097656.308594-.210938.425781-4.160156 8.53125-20.6875 20.15625-49.054687 31.355469-.226563-32.8125-5.625-65.382812-16-96.511719-12.152344-30.425781-27.152344-59.632812-44.789063-87.238281-8.855468-13.15625-16.1875-27.277343-21.851562-42.089843 7.039062 6.257812 17.347656 7.15625 25.363281 2.214843 8.015625-4.941406 11.839844-14.554687 9.414063-23.65625-2.425782-9.09375-10.535156-15.527343-19.945313-15.816406-9.410156-.292969-17.902343 5.625-20.890625 14.550781v-.144531c-2.523437-13.921875-4.054687-28.003906-4.574218-42.140625 94.453124-18.242188 133.472656 88.707031 135.136718 93.402344 1.511719 4.261718 5.539063 7.113281 10.058594 7.113281 1.203125 0 2.40625-.203125 3.542969-.609375 5.542969-1.957031 8.457031-8.027344 6.511719-13.578125-.425782-1.308594-42.144532-116.21875-142.390626-109.476563 10.941407-13.40625 26.523438-22.207031 43.652344-24.65625 44.53125-4.972656 88.035156 39.753907 88.511719 40.203126 4.066406 4.261718 10.816406 4.429687 15.078125.363281 4.269531-4.0625 4.429688-10.8125.363281-15.082031-2.054687-2.132813-51.113281-52.703126-106.164062-46.6875-17.40625 2.085937-33.746094 9.519531-46.761719 21.273437 10.570312-29.757813 33.929688-53.203125 63.648438-63.886719 3.703124-1.230468 6.445312-4.386718 7.136718-8.230468.6875-3.839844-.769531-7.757813-3.816406-10.203126-3.046875-2.445312-7.183594-3.035156-10.789062-1.527343-35.324219 12.730469-63.125 40.566406-75.824219 75.90625-18.496094-43.621094-59.878907-73.207031-107.144531-76.589844-5.8125.015625-10.597657 4.59375-10.867188 10.410156-.066406 2.828125.992188 5.570313 2.949219 7.617188 1.953125 2.046875 4.644531 3.238281 7.472656 3.300781 37.492187 2.667969 70.511719 25.648438 86.039063 59.878906-62.652344-52.9375-137.28125-18.652344-138.15625-18.238281-5.320313 2.53125-7.585938 8.890625-5.0625 14.210937 2.53125 5.324219 8.890624 7.585938 14.210937 5.0625 2.835937-1.355468 57.589844-26.46875 107.785156 9.394532-19.019531-5.765625-39.410156-5.125-58.035156 1.824218-50.984375 20.09375-67.386719 84.960938-68.058594 87.714844-.671875 2.75-.226562 5.648438 1.242188 8.066406 1.46875 2.421876 3.839843 4.152344 6.585937 4.828126.835938.199218 1.691406.308593 2.546875.308593 4.914063-.007812 9.179688-3.367187 10.347657-8.140625.136718-.5625 14.332031-56.847656 55.152343-72.941406 19.039063-7.464844 41.421875-4.960938 66.664063 7.21875-36.363282 13.863281-99.265625 52.683594-113.128906 157.398438-.726563 3.878906.753906 7.84375 3.84375 10.304687 3.089843 2.460937 7.28125 3.011719 10.90625 1.433594 3.617187-1.578125 6.066406-5.03125 6.367187-8.964844 14.183594-106.753906 82.011719-136.1875 109.308594-143.867187.746093 16.722656 2.925781 33.347656 6.507812 49.695312v.144531c-7.15625-6.304687-17.628906-7.089843-25.644531-1.929687-8.015625 5.164062-11.632812 15.019531-8.855469 24.140625 2.773438 9.125 11.261719 15.292969 20.796875 15.117187 9.535156-.175781 17.792969-6.65625 20.230469-15.875l.054687.160156c6.039063 14.789063 13.539063 28.9375 22.390626 42.230469 16.945312 26.648438 31.371093 54.816407 43.085937 84.140625 9.902344 30.949219 14.871094 63.273438 14.714844 95.765625-8.105469 2.667969-16.953125 5.121094-26.445313 7.46875.226563-1.988281.34375-3.980469.351563-5.976562 0-32.390625-26.261719-58.652344-58.652344-58.652344-32.398437 0-58.65625 26.261719-58.65625 58.652344-.019531 8.125 1.691406 16.160156 5.015625 23.570312-5.121094.425781-10.347656.746094-15.789062.960938.230468-15.773438-7.664063-30.554688-20.898438-39.140625-13.292969-7.683594-29.601562-8.007813-43.195312-.851563l-44.894532 23.355469-45.214844-62.496094c-9.226562-12.785156-23.644531-20.824218-39.367187-21.957031-15.730469-1.132813-31.144531 4.757813-42.109375 16.09375l-54.601562 56.304687c-14.773438-4.910156-29.023438-11.269531-42.550782-18.980468-8.152344-3.929688-14.972656-10.152344-19.621094-17.914063-.257812-.628906-.59375-1.230469-.996093-1.78125l-9.210938-49.75c-.609375-3.824219-3.246093-7.015625-6.886719-8.332031-3.636718-1.324219-7.710937-.574219-10.632812 1.964844-2.925781 2.539062-4.242188 6.460937-3.445312 10.246094l51.007812 275.335937h-40.523438c-5.890624 0-10.667968 4.773437-10.667968 10.664063 0 5.890624 4.777344 10.664062 10.667968 10.664062h618.53125c5.886719 0 10.660157-4.773438 10.660157-10.664062 0-5.890626-4.773438-10.664063-10.660157-10.664063zm-175.960937-223.953125c20.609375 0 37.324219 16.714844 37.324219 37.324219.039062 3.804687-.535156 7.582031-1.707032 11.199219-21.785156 4.707031-43.828124 8.125-66.011718 10.238281-4.515625-6.234375-6.941406-13.738281-6.933594-21.4375 0-20.609375 16.710938-37.324219 37.328125-37.324219zm-123.710937 40.84375c6.953124-3.808594 15.378906-3.769531 22.292968.109375 7.433594 5.210937 11.535156 13.984375 10.765625 23.035156l-.105469 9.492188-.53125 81.792969v.214843l.320313 25.703125c.09375 2.796875-.988281 5.503906-2.988281 7.460938-1.957032 2.105468-4.695313 3.308594-7.570313 3.308594h-.214843c-5.765626-.058594-10.441407-4.6875-10.554688-10.453126l-.320312-22.824218v-.421875l.53125-84.464844c.027343-2.828125-1.070313-5.550781-3.046876-7.570313-1.980468-2.023437-4.679687-3.167968-7.507812-3.199218h-.105469c-3.308593.105468-6.828125 0-10.777343-.105469-10.984376.210937-21.964844.320313-32.84375.105469zm-164.441407 10.558594 20.152344-20.792969 19.410156 26.765625c-13.542969-1.597656-26.765625-3.628906-39.5625-5.972656zm-1.601562-59.722656c6.589843-6.773438 15.84375-10.285157 25.269531-9.585938s18.058594 5.539062 23.574219 13.214844l48.417969 66.757812c-9.28125-.316406-18.449219-.957031-27.621094-1.8125l-30.503906-42.125c-3.699219-5.132812-9.484376-8.375-15.796876-8.847656-6.316406-.476562-12.515624 1.867188-16.9375 6.398438l-29.648437 30.601562c-8.210937-1.808594-16.210937-3.835938-23.890625-5.96875zm-121.785157 63.992187c38.222657 48.308594 118.265626 110.375 277.699219 113.894531l.214844 12.261719c.289063 17.417969 14.464844 31.40625 31.882813 31.460937h.640624c8.480469-.109374 16.5625-3.589843 22.46875-9.671874 5.902344-6.082032 9.140626-14.269532 8.992188-22.75l-.214844-16.207032c55.058594-6.496094 107.964844-25.230468 154.84375-54.816406-.53125 29.753906-2.023437 58.335938-3.195312 82.222656-.640625 11.945313-1.066406 22.714844-1.386719 31.886719h-460.785156zm514.660157 137.457031c1.386719-28.367187 3.09375-63.34375 3.519531-99.066406 14.078125-11.128906 26.878906-23.777344 38.164062-37.722656l-31.042968 167.613281h-12.136719c.324219-8.855469.855469-19.300781 1.496094-30.824219zm0 0"/><path d="m192.332031 128.109375c0 29.453125-23.875 53.324219-53.324219 53.324219-29.445312 0-53.324218-23.871094-53.324218-53.324219 0-29.445313 23.878906-53.320313 53.324218-53.320313 29.449219 0 53.324219 23.875 53.324219 53.320313zm0 0"/><path d="m128.34375 224.089844v21.328125c0 5.890625 4.773438 10.664062 10.664062 10.664062 5.886719 0 10.667969-4.773437 10.667969-10.664062v-21.328125c0-5.890625-4.78125-10.664063-10.667969-10.664063-5.890624 0-10.664062 4.773438-10.664062 10.664063zm0 0"/><path d="m139.007812 42.796875c5.886719 0 10.667969-4.773437 10.667969-10.664063v-21.328124c0-5.890626-4.78125-10.664063-10.667969-10.664063-5.890624 0-10.664062 4.773437-10.664062 10.664063v21.328124c0 5.890626 4.773438 10.664063 10.664062 10.664063zm0 0"/><path d="m21.699219 138.777344h21.328125c5.894531 0 10.667968-4.773438 10.667968-10.667969 0-5.886719-4.773437-10.660156-10.667968-10.660156h-21.328125c-5.886719 0-10.660157 4.773437-10.660157 10.660156 0 5.894531 4.773438 10.667969 10.660157 10.667969zm0 0"/><path d="m224.320312 128.109375c0 5.894531 4.777344 10.667969 10.667969 10.667969h21.328125c5.886719 0 10.664063-4.773438 10.664063-10.667969 0-5.886719-4.777344-10.660156-10.664063-10.660156h-21.328125c-5.890625 0-10.667969 4.773437-10.667969 10.660156zm0 0"/><path d="m63.601562 188.441406-15.082031 15.078125c-2.773437 2.675781-3.878906 6.644531-2.910156 10.367188.976563 3.730469 3.894531 6.644531 7.621094 7.621093 3.726562.972657 7.695312-.136718 10.371093-2.910156l15.078126-15.078125c4.042968-4.183593 3.984374-10.835937-.132813-14.949219-4.109375-4.113281-10.761719-4.171874-14.945313-.128906zm0 0"/><path d="m206.875 70.90625c2.832031 0 5.539062-1.121094 7.542969-3.125l15.078125-15.078125c4.042968-4.183594 3.984375-10.832031-.132813-14.949219-4.113281-4.113281-10.761719-4.171875-14.945312-.128906l-15.082031 15.078125c-3.050782 3.050781-3.960938 7.636719-2.308594 11.625 1.652344 3.980469 5.535156 6.578125 9.847656 6.578125zm0 0"/><path d="m63.601562 67.78125c4.183594 4.042969 10.835938 3.984375 14.945313-.125 4.117187-4.117188 4.175781-10.769531.132813-14.953125l-15.078126-15.078125c-4.183593-4.042969-10.839843-3.984375-14.949218.128906-4.113282 4.117188-4.171875 10.765625-.132813 14.949219zm0 0"/><path d="m214.417969 218.597656c4.183593 4.042969 10.832031 3.984375 14.945312-.128906 4.117188-4.113281 4.175781-10.765625.132813-14.949219l-15.078125-15.078125c-4.183594-4.042968-10.839844-3.984375-14.953125.128906-4.109375 4.113282-4.167969 10.765626-.128906 14.949219zm0 0"/></svg>