<?xml version="1.0" encoding="iso-8859-1"?>
<!-- Generator: Adobe Illustrator 17.1.0, SVG Export Plug-In . SVG Version: 6.00 Build 0)  -->
<!DOCTYPE svg PUBLIC "-//W3C//DTD SVG 1.1//EN" "http://www.w3.org/Graphics/SVG/1.1/DTD/svg11.dtd">
<svg version="1.1" id="Capa_1" xmlns="http://www.w3.org/2000/svg" xmlns:xlink="http://www.w3.org/1999/xlink" x="0px" y="0px"
	 viewBox="0 0 104.776 104.776" style="enable-background:new 0 0 104.776 104.776;" xml:space="preserve">
<path d="M104.744,43.032c-0.196-1.087-1.239-1.815-2.323-1.612l-10.798,1.949c-0.487-0.814-1.14-1.523-1.874-1.955l-14.185-8.33
	c-0.705-0.414-1.614-0.642-2.561-0.642c-1.092,0-2.122,0.29-2.901,0.817l-10.777,7.307c-0.089,0.06-0.172,0.137-0.259,0.206H50.69
	l5.654-2.636c0.725-0.338,1.275-0.939,1.549-1.693c0.274-0.755,0.239-1.569-0.099-2.293l-0.677-1.451
	c-0.491-1.051-1.56-1.73-2.725-1.73c-0.439,0-0.863,0.095-1.262,0.28l-20.063,9.354c-0.285,0.133-0.543,0.318-0.782,0.528
	c-0.952,0.503-1.609,1.492-1.609,2.642v2.759l-4.007-0.723c0.844-1.391,1.34-3.017,1.34-4.76c0-5.08-4.135-9.214-9.217-9.214
	c-5.08,0-9.213,4.134-9.213,9.214c0,0.583,0.061,1.152,0.165,1.706L2.355,41.42c-1.083-0.203-2.127,0.525-2.323,1.612
	c-0.196,1.087,0.526,2.128,1.613,2.323l2.627,0.474C8.034,57.194,28.64,73.808,52.388,73.808c23.75,0,44.356-16.613,48.117-27.978
	l2.627-0.474C104.218,45.16,104.94,44.119,104.744,43.032z M71.263,47.044c-2.182,0.313-4.661,0.557-7.296,0.738L71.3,42.45
	c0.797-0.578,2.401-0.658,3.25-0.158l5.416,3.181L71.263,47.044z"/>
<g>
</g>
<g>
</g>
<g>
</g>
<g>
</g>
<g>
</g>
<g>
</g>
<g>
</g>
<g>
</g>
<g>
</g>
<g>
</g>
<g>
</g>
<g>
</g>
<g>
</g>
<g>
</g>
<g>
</g>
</svg>
