<?xml version="1.0" encoding="iso-8859-1"?>
<!-- Generator: Adobe Illustrator 19.0.0, SVG Export Plug-In . SVG Version: 6.00 Build 0)  -->
<svg version="1.1" id="Capa_1" xmlns="http://www.w3.org/2000/svg" xmlns:xlink="http://www.w3.org/1999/xlink" x="0px" y="0px"
	 viewBox="0 0 511.998 511.998" style="enable-background:new 0 0 511.998 511.998;" xml:space="preserve">
<g>
	<g>
		<path d="M206.932,0C178.682,0,155.7,22.982,155.7,51.232s22.983,51.232,51.232,51.232c28.25,0,51.232-22.982,51.232-51.232
			S235.182,0,206.932,0z M206.932,87.463c-19.978,0-36.231-16.253-36.231-36.231s16.254-36.231,36.231-36.231
			c19.978,0,36.231,16.254,36.231,36.231C243.163,71.209,226.91,87.463,206.932,87.463z"/>
	</g>
</g>
<g>
	<g>
		<path d="M399,312.274c-2.958-2.898-7.707-2.854-10.607,0.104l-62.955,64.205l-22.232-23.261c-2.862-2.996-7.61-3.103-10.605-0.24
			c-2.994,2.862-3.102,7.609-0.24,10.605l27.586,28.862c2.926,3.063,7.81,3.095,10.778,0.069l68.379-69.736
			C402.004,319.922,401.957,315.174,399,312.274z"/>
	</g>
</g>
<g>
	<g>
		<path d="M440.383,362.372c-4.06-0.805-8.011,1.831-8.818,5.895c-8.6,43.273-39.135,80.246-79.691,96.494
			c-3.845,1.54-5.713,5.906-4.173,9.752c1.54,3.846,5.907,5.713,9.752,4.173c46.691-18.705,79.427-60.202,88.824-107.495
			C447.086,367.127,444.445,363.179,440.383,362.372z"/>
	</g>
</g>
<g>
	<g>
		<path d="M427.508,246.793c-20.064,11.335-38.989,11.713-56.253,1.124c-13.724-8.417-21.415-20.746-21.722-21.244
			c-2.527-4.137-6.843-6.679-11.65-6.911c-13.954-39.069-37.243-66.207-54.787-82.364c-11.189-10.304-25.712-15.978-40.895-15.978
			c-7.292,0-63.438,0-70.537,0c-16.21,0-31.639,6.091-43.444,17.15c-24.306,22.772-65.119,72.52-65.358,149.83
			c-0.051,16.21,12.819,29.753,28.688,30.19c16.577,0.485,30.349-12.818,30.349-29.507c0-29.014,8.149-56.327,23.743-80.083v276.976
			c0,14.349,11.674,26.023,26.023,26.023h16.747c7.24,0,13.8-2.972,18.522-7.761c4.722,4.789,11.281,7.761,18.522,7.761h16.747
			c14.349,0,26.023-11.674,26.023-26.023v-39.541c13.875,13.939,30.395,24.937,48.649,32.249c3.848,1.541,8.213-0.33,9.752-4.173
			c1.541-3.845-0.328-8.211-4.173-9.752c-48.29-19.347-82.259-67.31-82.259-122.726v-81.756
			c30.366,16.818,59.767,12.716,83.786-9.698c5.51-5.062,10-10.419,13.035-15.179c0.047-0.072,0.109-0.163,0.15-0.227
			c2.154,3.327,11.153,16.272,26.251,25.532c15.182,9.314,39.729,16.741,70.721-0.429v74.451c0,4.143,3.358,7.5,7.5,7.5
			c4.142,0,7.5-3.357,7.5-7.5v-75.312C449.135,248.329,437.178,241.334,427.508,246.793z M220.12,136.421l-8.981,10.668
			c-2.199,2.611-6.213,2.611-8.413,0l-8.982-10.668H220.12z M268.224,254.907v-43.966c8.641,13.568,14.834,28.191,18.5,43.708
			C280.712,255.967,274.556,256.049,268.224,254.907z M300.822,249.141c-6.024-24.073-17.575-46.134-34.417-65.692
			c-4.535-5.266-13.185-2.03-13.185,4.894v61.719c-3.231-1.471-7.283-3.722-7.394-3.774c-9.53-4.485-20.638,2.456-20.638,13.128
			v0.258v82.361c0,31.398,9.709,61.426,28.032,86.768v57.175h0.004c0,6.077-4.944,11.022-11.022,11.022h-16.747
			c-6.077,0-11.022-4.943-11.022-11.022V331.838c0-4.143-3.358-7.5-7.5-7.5s-7.5,3.357-7.5,7.5v154.139
			c0,6.077-4.944,11.022-11.022,11.022h-16.747c-6.077,0-11.022-4.943-11.022-11.022V186.869c0-6.899-8.571-10.124-13.125-4.962
			c-26.575,30.116-40.621,67.178-40.621,107.177c0,8.075-6.594,14.711-14.934,14.512c-7.8-0.215-14.126-7.01-14.1-15.148
			c0.222-71.678,38.071-117.81,60.614-138.929c9.015-8.446,20.8-13.098,33.187-13.098h2.471l17.116,20.328
			c8.193,9.734,23.18,9.721,31.363,0l17.115-20.328h2.471c11.409,0,22.323,4.266,30.734,12.011
			c16.615,15.302,38.787,41.201,51.615,78.614C318.836,235.665,310.125,243.89,300.822,249.141z"/>
	</g>
</g>
<g>
</g>
<g>
</g>
<g>
</g>
<g>
</g>
<g>
</g>
<g>
</g>
<g>
</g>
<g>
</g>
<g>
</g>
<g>
</g>
<g>
</g>
<g>
</g>
<g>
</g>
<g>
</g>
<g>
</g>
</svg>
