<svg height="512pt" viewBox="-53 0 512 512.00002" width="512pt" xmlns="http://www.w3.org/2000/svg"><path d="m402.878906 265.625c-4.164062-6.96875-11.105468-11.945312-19.042968-13.65625-7.941407-1.710938-16.308594-.03125-22.976563 4.605469l-45.207031 31.445312-43.675782-30.84375c-9.363281-6.613281-20.214843-10.398437-31.578124-11.066406 6.335937-8.027344 10.128906-18.144531 10.128906-29.136719v-6.257812c0-25.988282-21.144532-47.132813-47.132813-47.132813-25.984375 0-47.128906 21.144531-47.128906 47.132813v6.257812c0 11 3.796875 21.125 10.140625 29.152344-11.269531.710938-22.027344 4.488281-31.320312 11.050781l-43.679688 30.847657-45.207031-31.449219c-6.664063-4.636719-15.039063-6.316407-22.976563-4.605469s-14.875 6.6875-19.042968 13.660156c-7.730469 12.9375-4.472657 29.523438 7.578124 38.578125l54.644532 41.046875c8.039062 6.035156 17.613281 9.101563 27.234375 9.097656 7.777343 0 15.585937-2 22.628906-6.054687l33.597656-19.335937.050781 52.140624c.007813 8.273438-4.8125 15.921876-12.285156 19.484376l-60.453125 28.820312c-20.546875 9.792969-29.863281 33.957031-21.203125 55.011719 4.371094 10.628906 12.625 18.90625 23.242188 23.304687 5.292968 2.195313 10.851562 3.289063 16.414062 3.289063 5.589844 0 11.179688-1.105469 16.496094-3.324219l84.457031-35.210938 98.539063 36.738282c5.066406 1.886718 10.246094 2.785156 15.335937 2.785156 17.132813 0 33.199219-10.183594 40.121094-27.015625 8.789063-21.371094-.664063-45.898437-21.523437-55.84375l-59.878907-28.546875c-7.476562-3.5625-12.300781-11.222656-12.28125-19.511719l.105469-52.230469 33.792969 19.445313c7.042969 4.054687 14.847656 6.054687 22.625 6.054687 9.621093 0 19.199219-3.0625 27.234375-9.101562l54.644531-41.042969c12.054687-9.054687 15.3125-25.640625 7.582031-38.582031zm-226.613281-54.910156c0-14.960938 12.171875-27.132813 27.132813-27.132813 14.957031 0 27.128906 12.171875 27.128906 27.132813v6.257812c0 14.957032-12.171875 27.128906-27.128906 27.128906-14.960938 0-27.132813-12.171874-27.132813-27.128906zm207.023437 77.5-54.644531 41.046875c-8.125 6.101562-19.066406 6.769531-27.871093 1.703125l-42.820313-24.644532c-.296875-.167968-.597656-.320312-.902344-.457031l.019531-9.308593c.011719-5.523438-4.457031-10.007813-9.976562-10.019532-.011719 0-.015625 0-.015625 0-5.519531 0-9.996094 4.464844-10.007813 9.976563l-.171874 84.527343c-.035157 15.976563 9.257812 30.738282 23.675781 37.609376l59.878906 28.546874c11.273437 5.371094 16.382813 18.628907 11.632813 30.183594-4.851563 11.800782-18.023438 17.550782-29.976563 13.09375l-76.839844-28.644531h27.5625c5.523438 0 10-4.480469 10-10 0-5.523437-4.476562-10-10-10h-32.695312c-1.320313 0-2.628907.261719-3.847657.769531l-111.855468 46.628906c-5.660156 2.363282-11.894532 2.367188-17.5625.019532-5.664063-2.347656-10.066406-6.761719-12.398438-12.4375-4.621094-11.230469.351563-24.125 11.3125-29.351563l60.453125-28.820312c14.398438-6.863281 23.695313-21.605469 23.675781-37.554688l-.078124-84.347656c-.003907-5.519531-4.480469-9.988281-9.996094-9.988281 0 0-.007813 0-.011719 0-5.523437.003906-9.996094 4.484375-9.988281 10.007812l.007812 9.191406c-.25.117188-.496094.234376-.738281.375l-42.816406 24.640626c-8.808594 5.070312-19.75 4.402343-27.875-1.699219l-54.644531-41.046875c-3.851563-2.894532-4.894532-8.195313-2.421876-12.332032 1.351563-2.257812 3.511719-3.808593 6.085938-4.363281 2.574219-.554687 5.183594-.03125 7.34375 1.472657l50.960938 35.449218c3.453124 2.402344 8.042968 2.386719 11.480468-.039062l49.402344-34.890625c6.964844-4.921875 15.15625-7.523438 23.6875-7.523438h66.441406c8.527344 0 16.71875 2.601563 23.683594 7.523438l49.40625 34.890625c3.4375 2.425781 8.023438 2.441406 11.476562.039062l50.960938-35.449218c2.160156-1.503907 4.769531-2.027344 7.34375-1.472657 2.574219.554688 4.738281 2.105469 6.085938 4.363281 2.472656 4.136719 1.429687 9.441407-2.421876 12.332032zm0 0"/><path d="m134.066406 105.09375c17.703125 2.703125 30.550782 18.8125 29.25 36.675781-.300781 4.09375 1.9375 7.953125 5.632813 9.734375 3.699219 1.78125 8.109375 1.121094 11.128906-1.664062 13.148437-12.15625 33.753906-12.15625 46.90625 0 1.890625 1.742187 4.324219 2.65625 6.789063 2.65625 1.472656 0 2.953124-.328125 4.335937-.992188 3.699219-1.78125 5.933594-5.640625 5.636719-9.734375-1.304688-17.863281 11.542968-33.972656 29.246094-36.675781 4.058593-.621094 7.324218-3.660156 8.238281-7.660156.914062-4.003906-.710938-8.15625-4.101563-10.476563-14.773437-10.117187-19.359375-30.207031-10.4375-45.734375 2.046875-3.558594 1.707032-8.007812-.851562-11.214844-2.558594-3.210937-6.820313-4.53125-10.746094-3.328124-17.125 5.246093-35.6875-3.695313-42.261719-20.351563-1.507812-3.820313-5.195312-6.328125-9.300781-6.328125s-7.792969 2.507812-9.300781 6.328125c-6.578125 16.65625-25.148438 25.59375-42.265625 20.351563-3.925782-1.203126-8.1875.117187-10.746094 3.328124-2.558594 3.210938-2.898438 7.65625-.851562 11.214844 8.921874 15.527344 4.335937 35.617188-10.4375 45.734375-3.386719 2.320313-5.015626 6.472657-4.101563 10.476563.914063 4 4.183594 7.039062 8.238281 7.660156zm29.875-56.964844c15.203125-.578125 29.660156-7.539062 39.589844-19.0625 9.929688 11.523438 24.382812 18.488282 39.585938 19.0625-2.820313 14.949219.75 30.589844 9.777343 42.835938-13.445312 7.117187-23.449219 19.660156-27.394531 34.351562-6.972656-3.039062-14.472656-4.558594-21.96875-4.558594-7.5 0-14.996094 1.523438-21.96875 4.558594-3.945312-14.691406-13.949219-27.234375-27.394531-34.351562 9.023437-12.242188 12.597656-27.886719 9.773437-42.835938zm0 0"/><path d="m203.53125 111.246094c16.402344 0 29.75-13.347656 29.75-29.75s-13.347656-29.746094-29.75-29.746094-29.75 13.34375-29.75 29.746094 13.347656 29.75 29.75 29.75zm0-39.5c5.375 0 9.75 4.375 9.75 9.75s-4.375 9.75-9.75 9.75-9.75-4.375-9.75-9.75 4.375-9.75 9.75-9.75zm0 0"/><path d="m331.398438 164.992188c5.523437 0 10-4.476563 10-9.996094v-35c0-5.523438-4.476563-10-10-10-5.519532 0-10 4.476562-10 10v35c0 5.519531 4.480468 9.996094 10 9.996094zm0 0"/><path d="m331.398438 91.496094c5.523437 0 10-4.476563 10-10v-34.996094c0-5.523438-4.476563-10-10-10-5.519532 0-10 4.476562-10 10v34.996094c0 5.523437 4.480468 10 10 10zm0 0"/><path d="m331.398438 206.992188c2.628906 0 5.210937-1.070313 7.070312-2.929688s2.929688-4.4375 2.929688-7.070312c0-2.628907-1.070313-5.207032-2.929688-7.066407-1.859375-1.863281-4.441406-2.933593-7.070312-2.933593-2.640626 0-5.210938 1.070312-7.070313 2.933593-1.859375 1.859375-2.929687 4.4375-2.929687 7.066407 0 2.632812 1.070312 5.210937 2.929687 7.070312s4.441406 2.929688 7.070313 2.929688zm0 0"/><path d="m75.410156 193.992188c5.519532 0 9.996094-4.476563 9.996094-10v-34.996094c0-5.523438-4.476562-10-9.996094-10-5.523437 0-10 4.476562-10 10v34.996094c0 5.523437 4.476563 10 10 10zm0 0"/><path d="m75.410156 235.992188c2.628906 0 5.207032-1.070313 7.066406-2.929688 1.859376-1.859375 2.929688-4.441406 2.929688-7.070312 0-2.628907-1.066406-5.210938-2.929688-7.070313-1.859374-1.859375-4.4375-2.929687-7.066406-2.929687-2.632812 0-5.210937 1.070312-7.070312 2.929687s-2.929688 4.441406-2.929688 7.070313c0 2.628906 1.066406 5.210937 2.929688 7.070312 1.859375 1.859375 4.4375 2.929688 7.070312 2.929688zm0 0"/></svg>