<svg height="484pt" viewBox="0 -4 484.07383 484" width="484pt" xmlns="http://www.w3.org/2000/svg"><path d="m304 236.105469c.019531-62.125-44.566406-115.292969-105.746094-126.09375-61.175781-10.800781-121.277344 23.882812-142.53125 82.257812s2.476563 123.582031 56.277344 154.644531v18.664063c-8.664062 3.023437-14.828125 10.746094-15.851562 19.867187-1.027344 9.121094 3.273437 18.023438 11.050781 22.890626-3.625 6.234374-4.207031 13.785156-1.585938 20.503906 2.625 6.714844 8.167969 11.871094 15.058594 14 3.277344 19.175781 19.875 33.214844 39.328125 33.265625h32c19.449219-.054688 36.042969-14.089844 39.320312-33.265625 6.890626-2.125 12.4375-7.28125 15.0625-14s2.042969-14.265625-1.582031-20.503906c7.777344-4.867188 12.078125-13.769532 11.050781-22.890626-1.023437-9.121093-7.1875-16.84375-15.851562-19.867187v-18.664063c39.628906-22.820312 64.039062-65.082031 64-110.808593zm-240 0c-.019531-54.898438 39.753906-101.714844 93.933594-110.570313 54.175781-8.859375 106.785156 22.859375 124.25 74.90625 17.460937 52.042969-5.371094 109.074219-53.925782 134.6875-2.621093 1.386719-4.257812 4.109375-4.257812 7.070313v21.90625h-96v-21.90625c0-2.960938-1.636719-5.683594-4.257812-7.070313-36.761719-19.347656-59.769532-57.480468-59.742188-99.023437zm56 144h112c4.417969 0 8 3.582031 8 8s-3.582031 8-8 8h-112c-4.417969 0-8-3.582031-8-8s3.582031-8 8-8zm72 80h-32c-10.132812-.042969-19.148438-6.445313-22.527344-16h77.054688c-3.378906 9.554687-12.394532 15.957031-22.527344 16zm32-32h-96c-4.417969 0-8-3.582031-8-8s3.582031-8 8-8h96c4.417969 0 8 3.582031 8 8s-3.582031 8-8 8zm0 0"/><path d="m184 260.105469h-16c-4.417969 0-8-3.582031-8-8h-16c0 13.253906 10.746094 24 24 24v8h16v-8c13.253906 0 24-10.746094 24-24 0-13.253907-10.746094-24-24-24h-16c-4.417969 0-8-3.582031-8-8s3.582031-8 8-8h16c4.417969 0 8 3.582031 8 8h16c0-13.253907-10.746094-24-24-24v-8h-16v8c-13.253906 0-24 10.746093-24 24 0 13.253906 10.746094 24 24 24h16c4.417969 0 8 3.582031 8 8s-3.582031 8-8 8zm0 0"/><path d="m224 228.105469h16v16h-16zm0 0"/><path d="m112 228.105469h16v16h-16zm0 0"/><path d="m168 60.105469h16v32h-16zm0 0"/><path d="m45.894531 117.3125 11.3125-11.316406 22.628907 22.628906-11.3125 11.3125zm0 0"/><path d="m0 228.105469h32v16h-32zm0 0"/><path d="m45.894531 354.894531 22.625-22.628906 11.316407 11.316406-22.628907 22.625zm0 0"/><path d="m466.351562 295.449219c-2.085937-3.570313-5.074218-6.527344-8.664062-8.578125 3.417969-6.4375 3.707031-14.085938.792969-20.769532-2.917969-6.679687-8.722657-11.667968-15.769531-13.539062-3.449219-.910156-7.058594-1.027344-10.558594-.347656l-9.320313-16.109375c33.925781-58.640625 16.28125-133.5625-40.246093-170.902344-56.53125-37.339844-132.363282-24.164063-172.984376 30.054687l12.796876 9.597657c36.0625-48.019531 103.582031-59.050781 153.050781-25.003907 49.472656 34.042969 63.289062 101.046876 31.320312 151.886719-1.578125 2.507813-1.636719 5.6875-.152343 8.253907l10.984374 18.96875-83.136718 48-10.953125-18.96875c-1.476563-2.5625-4.246094-4.097657-7.199219-4-3.90625.148437-7.820312.089843-11.71875-.175782l-1.074219 15.960938c2.824219.191406 5.679688.296875 8.519531.296875l9.328126 16.167969c-6.007813 6.9375-7.488282 16.714843-3.808594 25.125 3.679687 8.40625 11.867187 13.953124 21.042968 14.25-.054687 10.808593 7.214844 20.28125 17.671876 23.023437 3.648437 1.046875 7.515624 1.109375 11.199218.183594 12.414063 15.019531 33.859375 18.882812 50.734375 9.136719l27.714844-16c16.820313-9.769532 24.175781-30.226563 17.421875-48.472657 6.984375-7.703125 8.199219-19.03125 3.007812-28.039062zm-133.777343 40.296875c-2.207031-3.828125-.894531-8.71875 2.929687-10.929688l96.992188-56c1.214844-.703125 2.59375-1.070312 4-1.070312.703125-.003906 1.402344.089844 2.078125.277344 2.054687.542968 3.804687 1.886718 4.859375 3.730468 2.203125 3.824219.890625 8.710938-2.929688 10.917969l-90.105468 51.992187-6.917969 4c-3.820313 2.195313-8.691407.890626-10.90625-2.917968zm22.929687 23.703125c-2.203125-3.824219-.898437-8.707031 2.921875-10.921875l83.140625-48c2.480469-1.53125 5.597656-1.597656 8.140625-.164063 2.539063 1.429688 4.097657 4.132813 4.070313 7.046875-.03125 2.914063-1.640625 5.585938-4.210938 6.964844l-83.132812 48c-3.828125 2.210938-8.71875.898438-10.929688-2.925781zm82.351563-1.351563-27.710938 16c-8.796875 5.03125-19.808593 3.992188-27.511719-2.59375l66.726563-38.527344c1.867187 9.964844-2.738281 20.023438-11.503906 25.121094zm0 0"/><path d="m217.070312 23.683594 13.855469-8 16 27.710937-13.859375 8zm0 0"/><path d="m449.023438 217.097656 4.140624-15.457031 30.910157 8.28125-4.140625 15.457031zm0 0"/><path d="m432.703125 93.179688 27.714844-16 8 13.859374-27.714844 15.996094zm0 0"/><path d="m341.546875 30.945312 8.28125-30.9101558 15.453125 4.1445318-8.28125 30.90625zm0 0"/></svg>