<?xml version="1.0" encoding="iso-8859-1"?>
<!-- Generator: Adobe Illustrator 19.0.0, SVG Export Plug-In . SVG Version: 6.00 Build 0)  -->
<svg version="1.1" id="Layer_1" xmlns="http://www.w3.org/2000/svg" xmlns:xlink="http://www.w3.org/1999/xlink" x="0px" y="0px"
	 viewBox="0 0 512 512" style="enable-background:new 0 0 512 512;" xml:space="preserve">
<g>
	<g>
		<path d="M233.785,349.972c-0.103-3.053-0.787-6.06-2.018-8.855l-6.025-13.699c-1.968-1.55-110.485-87.014-128.158-100.932
			c-7.548,10.398-12.414,22.498-14.167,35.227l-11.175,81.113L3.25,461.617c-6.658,11.463-2.761,26.153,8.702,32.81
			c11.457,6.655,26.151,2.766,32.811-8.701l71.374-122.892c1.572-2.707,2.6-5.695,3.025-8.797l11.574-84.492l22.818,12.964
			l32.413,73.701l3.98,118.27c0.238,7.07,3.523,13.306,8.537,17.533c-2.039-10.298,1.652-21.123,9.869-27.986l28.473-23.781
			L233.785,349.972z"/>
	</g>
</g>
<g>
	<g>
		<circle cx="268.187" cy="59.805" r="45.481"/>
	</g>
</g>
<g>
	<g>
		<path d="M239.888,338.557l0.734,3.179c2.368,10.256,12.283,16.966,22.708,15.283L239.888,338.557z"/>
	</g>
</g>
<g>
	<g>
		<path d="M26.727,119.636c-4.97-3.915-12.173-3.059-16.09,1.912c-3.915,4.972-3.059,12.175,1.912,16.09l3.301,2.6L32.28,124.01
			L26.727,119.636z"/>
	</g>
</g>
<g>
	<g>
		<path d="M266.113,165.161c8.382-14.753,3.217-33.508-11.537-41.89l-47.638-27.065c-10.534-5.984-23.105-5.059-32.487,1.328
			l26.166,14.323l-83.401-23.101c-6.587-1.824-13.786-0.228-18.996,4.286l-62.213,53.917c-8.609,7.462-9.516,20.483-2.077,29.068
			c7.401,8.54,20.47,9.527,29.067,2.077l53.865-46.682l75.526,20.919l-52.233-0.785l-13.95,24.554l84.585,66.617l6.148-16.24
			l5.658,25.537l47.017,37.029c-14.272-61.815-9.36-40.784-21.52-92.174L266.113,165.161z"/>
	</g>
</g>
<g>
	<g>
		<path d="M509.04,476.967l-92.58-107.856c-15.252-17.769-41.949-19.986-59.92-4.976c-3.152,2.633-6.321,5.279-9.397,7.849
			L96.897,174.9l-17.632,15.28l249.905,196.816c-4.003,3.343-105.136,87.813-109.069,91.097c-7.613,6.361-3.233,18.982,6.885,18.982
			h272.813C510.207,497.076,515.819,484.864,509.04,476.967z"/>
	</g>
</g>
<g>
</g>
<g>
</g>
<g>
</g>
<g>
</g>
<g>
</g>
<g>
</g>
<g>
</g>
<g>
</g>
<g>
</g>
<g>
</g>
<g>
</g>
<g>
</g>
<g>
</g>
<g>
</g>
<g>
</g>
</svg>
