<svg height="480pt" viewBox="0 -80 480.00384 480" width="480pt" xmlns="http://www.w3.org/2000/svg"><path d="m391.5625 5.402344c-.746094-2.179688-2.398438-3.929688-4.53125-4.804688-2.136719-.871094-4.539062-.785156-6.601562.246094-31.535157 14.515625-65.71875 22.398438-100.425782 23.160156-53.847656 0-116.558594-23.257812-117.191406-23.496094-.089844 0-.175781 0-.257812-.050781-.382813-.113281-.777344-.199219-1.175782-.253906-.367187-.082031-.742187-.1328125-1.117187-.1601562-.089844 0-1.921875.1601562-2.289063.2539062-.390625.121094-.769531.273437-1.136718.449219-.332032.125-.65625.277344-.96875.449218-.582032.398438-1.140626.835938-1.671876 1.304688-.03125.058594-.070312.113281-.113281.167969-.476562.617187-.910156 1.269531-1.292969 1.949219 0 .066406-.082031.113281-.113281.175781l-111.542969 254.953125-39.28125 47.136718c-2.828124 3.398438-2.367187 8.445313 1.03125 11.273438 3.398438 2.824219 8.445313 2.363281 11.273438-1.035156l25.847656-31.023438v25.90625c0 4.417969 3.582032 8 8 8h424c4.417969 0 8-3.582031 8-8v-48c0-.886718-.152344-1.765625-.441406-2.601562zm-111.558594 34.601562c34.140625-.601562 67.851563-7.765625 99.289063-21.097656l34.75 101.097656h-150.039063c-4.417968 0-8 3.582032-8 8 0 4.417969 3.582032 8 8 8h155.542969l41.257813 120h-183.570313l-66.496094-152h61.265625c4.417969 0 8-3.582031 8-8 0-4.417968-3.582031-8-8-8h-68.265625l-29.160156-66.648437c34.085937 11.15625 69.582031 17.433593 105.425781 18.648437zm-224 225.671875 104-237.671875 104 237.671875v38.328125h-47.054687l22.253906-44.425781c1.125-2.25 1.125-4.898437 0-7.152344l-24-48c-.773437-1.550781-2.03125-2.808593-3.582031-3.582031l-48-24h-.097656c-.199219-.097656-.40625-.136719-.609376-.21875-.550781-.195312-1.113281-.363281-1.6875-.503906-.207031 0-1-.09375-1.183593-.09375-.183594 0-.96875.0625-1.175781.09375-.574219.140625-1.144532.3125-1.703126.511718-.191406.074219-.398437.113282-.59375.203126h-.09375l-48 24c-1.550781.773437-2.808593 2.03125-3.585937 3.582031l-24 48c-1.125 2.253906-1.125 4.902343 0 7.152343l22.167969 44.433594h-47.054688zm55.199219 18.816407-14.253906-28.488282 21.015625-42.042968 26.800781-13.390626zm64.058594-83.921876 26.796875 13.390626 21 42.042968-14.253906 28.488282zm-54.457031 103.433594 39.199218-98.402344 1.96875 4.921876 37.382813 93.480468zm159.199218-17.90625 14.921875 17.90625h-14.921875zm184 17.90625h-148.25l-26.671875-32h174.921875zm0 0"/><path d="m304.003906 104.003906h8c4.417969 0 8-3.582031 8-8 0-4.417968-3.582031-8-8-8h-8c-4.417968 0-8 3.582032-8 8 0 4.417969 3.582032 8 8 8zm0 0"/><path d="m416.003906 240.003906h8c4.417969 0 8-3.582031 8-8 0-4.417968-3.582031-8-8-8h-8c-4.417968 0-8 3.582032-8 8 0 4.417969 3.582032 8 8 8zm0 0"/><path d="m376.003906 240.003906h8c4.417969 0 8-3.582031 8-8 0-4.417968-3.582031-8-8-8h-8c-4.417968 0-8 3.582032-8 8 0 4.417969 3.582032 8 8 8zm0 0"/></svg>