<svg height="480pt" viewBox="0 -4 480 480" width="480pt" xmlns="http://www.w3.org/2000/svg"><path d="m472 80h-32c-1.292969.023438-2.554688.371094-3.679688 1.007812l-6.664062-6.664062c-1.5-1.5-3.535156-2.34375-5.65625-2.34375h-20.6875l-27.3125-27.3125v-20.6875c0-2.125-.84375-4.15625-2.34375-5.65625l-16-16c-3.125-3.125-8.1875-3.125-11.3125 0l-109.65625 109.65625h-121.375l-61.65625-61.65625c-3.125-3.125-8.1875-3.125-11.3125 0l-28 28c-1.289062 1.324219-2.066406 3.066406-2.199219 4.910156-7.480469 4.234375-12.1171872 12.152344-12.144531 20.746094v360c0 4.417969 3.582031 8 8 8h464c4.417969 0 8-3.582031 8-8v-376c0-4.421875-3.582031-8-8-8zm-8 16v192h-16v-172.691406l5.65625-5.65625c3.121094-3.121094 3.121094-8.1875 0-11.308594l-2.34375-2.34375zm-100.6875 192 6.207031-6.210938c5.417969-5.414062 7.644531-13.246093 5.886719-20.703124-1.757812-7.453126-7.25-13.464844-14.519531-15.886719l-2.078125-.695313 13.695312-13.699218.6875 2.074218c3 9.035156 11.457032 15.128906 20.976563 15.121094h10.519531l27.3125 27.308594v12.691406zm-72 0-29.808594-29.808594 51.121094-31.121094c.398438.964844.984375 1.84375 1.71875 2.582032l24 24c.070312.074218.175781.097656.257812.171875.609376.566406 1.308594 1.03125 2.070313 1.375.175781.078125.335937.183593.519531.253906.183594.074219.175782.097656.28125.128906l14.398438 4.800781c2.007812.664063 3.53125 2.320313 4.019531 4.378907.488281 2.054687-.125 4.21875-1.617187 5.714843l-17.585938 17.523438zm-128-128h25.375l-12.6875 12.6875zm108.6875-60.691406 83.152344 83.152344-2.679688 1.601562c-2.273437-.167969-4.507812.65625-6.128906 2.253906l-3.777344 3.769532-92.710937 56.457031-62.542969-62.542969zm101.65625 90.34375 29.65625-29.652344h28.6875v92.6875l-18.34375-18.34375c-1.5-1.5-3.535156-2.34375-5.65625-2.34375h-13.832031c-2.628907.003906-4.964844-1.675781-5.792969-4.167969l-4.800781-14.363281c0-.101562-.09375-.183594-.125-.277344-.035157-.097656-.167969-.34375-.257813-.519531-.34375-.761719-.808594-1.460937-1.375-2.074219-.074218-.078125-.097656-.183594-.167968-.253906l-15.71875-15.722656 6.222656-3.789063c.238281-.144531.359375-.402343.582031-.570312.324219-.179688.628906-.382813.921875-.609375zm58.34375-45.652344h-12.6875l12.6875-12.691406zm-88 92.6875-12.6875-12.6875 20.6875-20.691406 12.6875 12.691406zm8-217.378906 8 8v20.691406c0 2.121094.84375 4.15625 2.34375 5.652344l32 32c1.5 1.503906 3.535156 2.34375 5.65625 2.347656h20.6875l16 16-68.6875 68.6875-84.6875-84.6875zm-131.3125 108.691406-16 16h-57.375l-16-16zm-172.6875-60.691406 220.6875 220.691406h-33.375l-8-8 10.34375-10.347656-11.3125-11.308594-10.34375 10.34375-12.6875-12.6875 10.34375-10.347656-11.3125-11.308594-10.34375 10.34375-12.6875-12.6875 10.34375-10.347656-11.3125-11.308594-10.34375 10.34375-12.6875-12.6875 10.34375-10.347656-11.3125-11.308594-10.34375 10.34375-12.6875-12.6875 10.34375-10.347656-11.3125-11.308594-10.34375 10.34375-88.6875-88.6875zm0 220.691406v-64c0 2.121094.84375 4.15625 2.34375 5.652344l34.34375 34.347656-24 24zm-32-184c.011719-3.335938 2.109375-6.308594 5.246094-7.441406l10.753906 10.75v180.691406h-16zm120.6875 108-16.6875 16.6875-34.34375-34.34375c-1.5-1.5-3.535156-2.34375-5.65625-2.34375h-24c-4.417969 0-8 3.578125-8 8v-40h36.6875zm-88.6875-68v-16h4.6875l16 16zm48 131.308594 12.6875 12.691406h-25.375zm-32-54.621094v-12.6875h12.6875l80 80h-25.375zm67.3125 19.3125 16.6875-16.691406 52.984375 52.984375-19.230469 11.707031h-2.402344zm81.3125 47.933594.0625.066406h-.160156zm251.375 168.066406h-448v-152h448zm0 0"/><path d="m432 392h-49.753906l-4-16h29.753906c3.234375-.003906 6.152344-1.953125 7.390625-4.941406 1.238281-2.988282.550781-6.429688-1.734375-8.714844l-32-32c-1.5-1.5-3.535156-2.34375-5.65625-2.34375h-40c-2.675781-.003906-5.171875 1.332031-6.65625 3.558594-8.488281 12.769531-22.808594 20.441406-38.144531 20.441406h-203.199219c-17.671875 0-32 14.324219-32 32 0 17.671875 14.328125 32 32 32h209.671875c12.183594-.035156 23.875 4.808594 32.464844 13.445312l8.207031 8.207032c1.5 1.503906 3.535156 2.34375 5.65625 2.347656h48c1.816406 0 3.582031-.617188 5-1.753906l40-32c2.652344-2.121094 3.679688-5.691406 2.550781-8.898438-1.125-3.207031-4.152343-5.351562-7.550781-5.347656zm-42.808594 32h-41.878906l-5.863281-5.867188c-11.585938-11.648437-27.347657-18.179687-43.777344-18.132812h-209.671875c-8.835938 0-16-7.164062-16-16 0-8.839844 7.164062-16 16-16h203.199219c19.152343.019531 37.230469-8.847656 48.9375-24h32.589843l16 16h-20.726562c-2.460938 0-4.789062 1.132812-6.304688 3.074219-1.515624 1.941406-2.050781 4.472656-1.457031 6.859375l8 32c.890625 3.5625 4.089844 6.0625 7.761719 6.066406h33.191406zm0 0"/><path d="m373.65625 141.652344 24-24c3.121094-3.121094 3.121094-8.1875 0-11.308594l-48-48c-3.125-3.125-8.1875-3.125-11.3125 0l-24 24c-3.121094 3.121094-3.121094 8.1875 0 11.308594l48 48c3.125 3.125 8.1875 3.125 11.3125 0zm-42.34375-53.652344 12.6875-12.691406 36.6875 36.691406-12.6875 12.6875zm0 0"/><path d="m72 336c0-13.257812-10.746094-24-24-24s-24 10.742188-24 24c0 13.253906 10.746094 24 24 24s24-10.746094 24-24zm-24 8c-4.417969 0-8-3.582031-8-8 0-4.421875 3.582031-8 8-8s8 3.578125 8 8c0 4.417969-3.582031 8-8 8zm0 0"/></svg>