<svg viewBox="0 0 511 512" xmlns="http://www.w3.org/2000/svg"><path d="m173.300781 447.929688c2.628907 0 5.207031-1.070313 7.066407-2.929688 1.859374-1.859375 2.933593-4.441406 2.933593-7.070312 0-2.628907-1.070312-5.210938-2.933593-7.070313-1.859376-1.859375-4.4375-2.929687-7.066407-2.929687-2.632812 0-5.210937 1.070312-7.070312 2.929687s-2.929688 4.441406-2.929688 7.070313c0 2.628906 1.066407 5.210937 2.929688 7.070312 1.859375 1.859375 4.441406 2.929688 7.070312 2.929688zm0 0"/><path d="m502.46875 492h-48.105469l-18.277343-32.671875v-89.132813c0-21.019531-13.492188-39.332031-33.570313-45.5625l-76.714844-23.8125v-81.226562c0-7.546875-2.230469-14.652344-6.140625-20.621094 21.769532-7.507812 37.457032-28.1875 37.457032-52.472656 0-28.933594-22.261719-52.757812-50.554688-55.269531v-41.167969c0-27.605469-22.457031-50.0625-50.0625-50.0625-5.523438 0-10 4.476562-10 10v79.816406c-.046875 0-.089844-.007812-.136719-.007812-8.699219-.175782-16.925781 3.078125-23.183593 9.113281-6.257813 6.035156-9.792969 14.148437-9.949219 22.839844-.328125 17.945312 14.007812 32.808593 31.953125 33.136719l.582031.011718c-1.738281 16.355469-6.582031 32.519532-14.296875 47.394532-2.75 5.304687-4.207031 11.28125-4.207031 17.289062v86.007812l-24.089844 43.40625-129.0625 81.140626c-12.277344 7.71875-19.609375 20.984374-19.609375 35.488281v26.363281h-44c-5.523438 0-10 4.476562-10 10s4.476562 10 10 10h491.972656c5.519532 0 10-4.476562 10-10s-4.480468-10-10.003906-10zm-165.351562-345.5c0 17.898438-13.3125 32.742188-30.554688 35.15625v-70.3125c17.242188 2.414062 30.554688 17.257812 30.554688 35.15625zm-70.617188-124.789062c11.675781 4.128906 20.0625 15.277343 20.0625 28.351562v143.226562c0 4.359376 2.820312 8.214844 6.976562 9.53125 7.332032 2.328126 12.261719 9.070313 12.261719 16.773438v78.597656h-58.535156v-78.597656c0-2.855469.660156-5.574219 1.957031-8.082031 11.304688-21.792969 17.277344-46.03125 17.277344-70.101563zm-29.761719 109.351562c-2.324219-2.410156-3.574219-5.585938-3.511719-8.9375.058594-3.351562 1.421876-6.480469 3.835938-8.808594 2.355469-2.269531 5.441406-3.515625 8.703125-3.515625.140625 0 .28125.003907.421875.003907.105469 0 .207031-.011719.3125-.015626v25.128907l-.953125-.015625c-3.351563-.0625-6.480469-1.425782-8.808594-3.839844zm-84.964843 317.445312c-2.433594-4.957031-8.425782-7.003906-13.386719-4.566406l-44.304688 21.761719c-.660156.324219-1.28125.722656-1.855469 1.183594l-17.726562 14.246093v-15.496093c0-7.582031 3.832031-14.519531 10.253906-18.558594l131.234375-82.507813c1.425781-.894531 2.605469-2.140624 3.421875-3.609374l23.738282-42.769532h53.96875l-28.886719 43.359375c-12.058594 18.097657-28.75 32.730469-48.269531 42.316407l-20.703126 10.171874c-4.957031 2.433594-7 8.425782-4.566406 13.382813 2.4375 4.957031 8.429688 7.003906 13.386719 4.566406l20.699219-10.167969c22.6875-11.144531 42.082031-28.148437 56.097656-49.183593l7.851562-11.785157 81.773438 30.121094v92.441406c0 2.992188.460938 5.875 1.316406 8.585938h-282.914062l10.992187-8.835938 43.3125-21.273437c4.957031-2.433594 7-8.425781 4.566407-13.382813zm251.3125 43.492188c-4.734376 0-8.585938-3.851562-8.585938-8.585938v-99.414062c0-4.1875-2.613281-7.9375-6.542969-9.382812l-83.824219-30.878907 10.878907-16.332031 4.964843-7.449219 76.613282 23.773438c11.660156 3.621093 19.496094 14.253906 19.496094 26.464843v91.742188c0 1.710938.4375 3.390625 1.269531 4.882812l14.089843 25.179688zm0 0"/></svg>