<svg height="511pt" viewBox="0 -23 511.99801 511" width="511pt" xmlns="http://www.w3.org/2000/svg"><path d="m156.808594 53.570312v-17.882812c0-3.019531-2.445313-5.464844-5.464844-5.464844s-5.464844 2.445313-5.464844 5.464844v17.882812c0 3.019532 2.445313 5.464844 5.464844 5.464844s5.464844-2.445312 5.464844-5.464844zm0 0"/><path d="m145.878906 118.152344v8.878906c3.921875 1.648438 7.59375 3.78125 10.929688 6.328125v-15.207031c0-3.019532-2.445313-5.464844-5.464844-5.464844s-5.464844 2.445312-5.464844 5.464844zm0 0"/><path d="m206.980469 85.859375c0-3.015625-2.445313-5.460937-5.464844-5.460937h-17.882813c-3.015624 0-5.464843 2.445312-5.464843 5.460937 0 3.019531 2.449219 5.464844 5.464843 5.464844h17.882813c3.019531 0 5.464844-2.445313 5.464844-5.464844zm0 0"/><path d="m182.957031 46.519531-12.644531 12.644531c-2.136719 2.136719-2.136719 5.59375 0 7.726563 2.132812 2.136719 5.59375 2.136719 7.726562 0l12.644532-12.644531c2.136718-2.132813 2.136718-5.59375 0-7.726563-2.132813-2.132812-5.589844-2.132812-7.726563 0zm0 0"/><path d="m124.726562 104.765625c-2.597656 7.144531-6.972656 13.441406-12.585937 18.363281h9.664063l10.570312-10.570312c2.132812-2.136719 2.132812-5.59375 0-7.730469-2.109375-2.105469-5.507812-2.125-7.648438-.0625zm0 0"/><path d="m170.3125 104.828125c-2.136719 2.136719-2.136719 5.59375 0 7.730469l12.644531 12.644531c2.136719 2.132813 5.59375 2.132813 7.726563 0 2.136718-2.132813 2.136718-5.59375 0-7.726563l-12.644532-12.648437c-2.132812-2.132813-5.59375-2.132813-7.726562 0zm0 0"/><path d="m119.730469 46.519531c-2.136719-2.132812-5.597657-2.132812-7.730469 0-2.132812 2.132813-2.132812 5.59375 0 7.726563l12.648438 12.644531c2.132812 2.136719 5.59375 2.136719 7.726562 0 2.132812-2.132813 2.132812-5.589844 0-7.726563zm0 0"/><path d="m388.496094 54.269531v-17.882812c0-3.019531-2.445313-5.464844-5.464844-5.464844-3.015625 0-5.460938 2.445313-5.460938 5.464844v17.882812c0 3.015625 2.445313 5.464844 5.460938 5.464844 3.019531 0 5.464844-2.449219 5.464844-5.464844zm0 0"/><path d="m377.570312 118.847656v17.886719c0 3.015625 2.445313 5.460937 5.460938 5.460937 3.019531 0 5.464844-2.445312 5.464844-5.460937v-13.972656c-2.449219-2.738281-4.433594-5.898438-5.832032-9.359375-2.847656.191406-5.09375 2.554687-5.09375 5.445312zm0 0"/><path d="m327.394531 86.558594c0 3.019531 2.445313 5.464844 5.464844 5.464844h17.882813c3.019531 0 5.464843-2.445313 5.464843-5.464844 0-3.019532-2.445312-5.464844-5.464843-5.464844h-17.882813c-3.019531 0-5.464844 2.449219-5.464844 5.464844zm0 0"/><path d="m409.730469 67.589844 12.644531-12.644532c2.132812-2.136718 2.132812-5.59375 0-7.730468-2.132812-2.132813-5.59375-2.132813-7.726562 0l-12.648438 12.648437c-2.132812 2.132813-2.132812 5.59375 0 7.726563 2.136719 2.132812 5.59375 2.132812 7.730469 0zm0 0"/><path d="m356.335938 105.527344-12.644532 12.644531c-2.136718 2.136719-2.136718 5.59375 0 7.730469 2.132813 2.132812 5.59375 2.132812 7.726563 0l12.644531-12.648438c2.136719-2.132812 2.136719-5.59375 0-7.726562-2.132812-2.132813-5.59375-2.132813-7.726562 0zm0 0"/><path d="m351.417969 47.214844c-2.132813-2.132813-5.59375-2.132813-7.726563 0-2.136718 2.136718-2.136718 5.59375 0 7.730468l12.644532 12.644532c2.136718 2.132812 5.59375 2.132812 7.726562 0 2.136719-2.132813 2.136719-5.59375 0-7.726563zm0 0"/><path d="m491.21875.5h-445.164062c-11.457032 0-20.78125 9.320312-20.78125 20.78125v103.804688c4.410156-1.265626 9.058593-1.957032 13.867187-1.957032h10.972656v-3.078125c-7.480469-7.992187-12.078125-18.71875-12.078125-30.503906s4.597656-22.511719 12.078125-30.503906v-33.707031h437.046875v275.648437h-34.742187v-131.222656c0-4.617188-3.746094-8.359375-8.363281-8.359375h-47.339844c-4.621094 0-8.363282 3.742187-8.363282 8.359375v131.222656h-74.429687v-131.222656c0-4.617188-3.746094-8.359375-8.363281-8.359375h-26.09375l-29.609375 14.261718v125.320313h-66.480469v-62.925781l-15.234375 14.878906c-8.457031 8.257812-20.875 9.902344-30.964844 4.980469-.019531 109.171875 0-17.261719-.007812 67.90625h354.050781c11.457031 0 20.777344-9.324219 20.777344-20.78125v-283.765625c.003906-11.457032-9.320313-20.777344-20.777344-20.777344zm0 0"/><path d="m169.722656 85.859375c0 10.152344-8.226562 18.382813-18.378906 18.382813s-18.378906-8.230469-18.378906-18.382813c0-10.148437 8.226562-18.378906 18.378906-18.378906s18.378906 8.230469 18.378906 18.378906zm0 0"/><path d="m364.652344 86.558594c0 9.289062 6.894531 16.945312 15.84375 18.183594-1.328125-12.703126 4.933594-24.707032 15.660156-31.042969-3.335938-3.402344-7.980469-5.519531-13.121094-5.519531-10.152344 0-18.382812 8.226562-18.382812 18.378906zm0 0"/><path d="m281.644531 56.089844c-9.46875 0-17.449219 6.308594-20 14.949218-1.246093-.242187-2.527343-.375-3.847656-.375-11.15625 0-20.199219 9.042969-20.199219 20.199219s9.042969 20.203125 20.199219 20.203125h44.710937c8.40625 0 15.222657-6.816406 15.222657-15.222656s-6.816407-15.21875-15.222657-15.21875c-.117187 0-.226562.015625-.34375.015625.214844-1.195313.34375-2.425781.34375-3.683594 0-11.523437-9.339843-20.867187-20.863281-20.867187zm0 0"/><path d="m392.238281 101.375c0 11.160156 9.046875 20.203125 20.203125 20.203125h44.710938c8.40625 0 15.21875-6.816406 15.21875-15.222656s-6.8125-15.21875-15.21875-15.21875c-.117188 0-.230469.015625-.34375.015625.210937-1.195313.34375-2.425782.34375-3.683594 0-11.523438-9.34375-20.867188-20.867188-20.867188-9.464844 0-17.445312 6.3125-20 14.949219-1.242187-.238281-2.527344-.375-3.84375-.375-11.15625 0-20.203125 9.042969-20.203125 20.199219zm0 0"/><path d="m82.71875 55.796875c-18.679688 0-33.753906 15.148437-33.753906 33.75 0 17.402344 13.21875 31.867187 30.351562 33.582031.15625 0 3.710938 0 3.609375 0 .300781-.042968 7.292969.761719 15.878907-3.902344 10.585937-5.75 17.664062-16.929687 17.664062-29.675781 0-18.671875-15.136719-33.753906-33.75-33.753906zm0 0"/><path d="m160.507812 245.117188 49.339844-48.1875c4.441406-4.339844 5.871094-10.597657 4.265625-16.175782l74.347657-35.816406c3.710937-1.789062 5.265624-6.242188 3.480468-9.949219s-6.238281-5.265625-9.945312-3.480469l-79.105469 38.109376c-1.449219-.40625-2.945313-.609376-4.441406-.609376-4.097657 0-8.195313 1.53125-11.359375 4.621094l-21.675782 21.167969v-22.394531c-.105468-21.082032-17.472656-38.34375-38.84375-38.34375-9.910156 0-77.523437 0-87.429687 0-21.476563 0-39.035156 17.199218-39.140625 38.425781v119.644531c0 9.023438 7.316406 16.285156 16.285156 16.285156 8.992188 0 16.285156-7.292968 16.285156-16.285156v-119.5625c.015626-3.105468 3.148438-5.9375 6.570313-5.9375h.492187c-.03125 24.015625.011719 270.449219 0 279.699219 0 10.792969 8.75 19.542969 19.542969 19.542969s19.539063-8.75 19.539063-19.542969v-156.203125h8.441406v156.203125c0 10.792969 8.746094 19.542969 19.539062 19.542969 10.792969 0 19.542969-8.75 19.542969-19.542969l.007813-279.699219c.101562 0 .417968 0 .320312 0 3.382813 0 6.257813 2.714844 6.273438 5.855469v60.984375c.003906 14.328125 17.34375 21.730469 27.667968 11.648438zm0 0"/></svg>